<?xml version="1.0" encoding="iso-8859-1"?>
<!-- Generator: Adobe Illustrator 27.6.1, SVG Export Plug-In . SVG Version: 6.00 Build 0)  -->
<svg version="1.1" id="Artwork" xmlns="http://www.w3.org/2000/svg" xmlns:xlink="http://www.w3.org/1999/xlink" x="0px" y="0px"
	 width="105.826px" height="41px" viewBox="0 0 105.826 41" style="enable-background:new 0 0 105.826 41;" xml:space="preserve">
<g>
	<g>
		<g>
			<g>
				<path style="fill:#A6A6A6;" d="M95.297,0H9.535C9.168,0,8.806,0,8.44,0.002C8.134,0.004,7.83,0.01,7.521,0.015
					C6.855,0.031,6.182,0.072,5.517,0.191C4.848,0.309,4.226,0.509,3.616,0.818C3.018,1.125,2.471,1.523,1.998,1.997
					C1.519,2.471,1.123,3.02,0.819,3.618C0.508,4.227,0.311,4.852,0.194,5.521C0.074,6.184,0.032,6.854,0.015,7.523
					C0.006,7.83,0.005,8.138,0,8.444C0,8.807,0,9.17,0,9.536v20.929c0,0.369,0,0.73,0,1.094c0.005,0.311,0.006,0.611,0.015,0.922
					c0.017,0.67,0.059,1.34,0.179,2.002c0.117,0.67,0.314,1.298,0.625,1.904c0.303,0.596,0.7,1.145,1.178,1.614
					c0.473,0.478,1.02,0.875,1.619,1.179c0.609,0.312,1.231,0.51,1.901,0.631c0.665,0.119,1.338,0.158,2.004,0.177
					c0.309,0.007,0.613,0.011,0.919,0.011C8.806,40,9.168,40,9.535,40h85.762c0.359,0,0.725,0,1.084-0.002
					c0.305,0,0.617-0.004,0.922-0.011c0.67-0.019,1.342-0.058,2-0.177c0.67-0.121,1.293-0.318,1.908-0.631
					c0.598-0.304,1.145-0.701,1.617-1.179c0.477-0.47,0.873-1.019,1.182-1.614c0.307-0.606,0.506-1.234,0.619-1.904
					c0.123-0.662,0.162-1.332,0.186-2.002c0.004-0.311,0.004-0.611,0.004-0.922c0.008-0.363,0.008-0.725,0.008-1.094V9.536
					c0-0.366,0-0.729-0.008-1.092c0-0.307,0-0.614-0.004-0.921c-0.023-0.67-0.062-1.34-0.186-2.002
					c-0.113-0.67-0.312-1.295-0.619-1.903c-0.309-0.599-0.705-1.147-1.182-1.621c-0.473-0.474-1.02-0.872-1.617-1.179
					c-0.615-0.31-1.238-0.51-1.908-0.627c-0.658-0.119-1.33-0.16-2-0.177c-0.305-0.005-0.617-0.011-0.922-0.013
					C96.021,0,95.656,0,95.297,0L95.297,0z"/>
				<path d="M8.445,39.125c-0.305,0-0.602-0.004-0.904-0.011c-0.559-0.016-1.222-0.047-1.869-0.163
					c-0.61-0.11-1.153-0.29-1.657-0.548c-0.521-0.265-0.99-0.606-1.397-1.017c-0.414-0.406-0.754-0.873-1.021-1.396
					c-0.259-0.505-0.437-1.047-0.543-1.657c-0.122-0.673-0.153-1.355-0.166-1.875c-0.006-0.211-0.015-0.913-0.015-0.913V8.444
					c0,0,0.009-0.691,0.015-0.895c0.013-0.524,0.044-1.206,0.166-1.872C1.16,5.064,1.337,4.522,1.597,4.016
					c0.266-0.524,0.606-0.994,1.015-1.398c0.414-0.414,0.884-0.757,1.402-1.022c0.514-0.261,1.055-0.439,1.653-0.544
					C6.341,0.931,7.023,0.9,7.543,0.887l0.902-0.012h87.931l0.913,0.013c0.513,0.013,1.195,0.043,1.858,0.163
					c0.603,0.105,1.147,0.285,1.671,0.548c0.513,0.263,0.982,0.605,1.392,1.016c0.409,0.406,0.752,0.878,1.023,1.404
					c0.258,0.511,0.434,1.053,0.535,1.649c0.116,0.631,0.152,1.279,0.174,1.887c0.003,0.283,0.003,0.587,0.003,0.89
					c0.008,0.375,0.008,0.732,0.008,1.092v20.929c0,0.363,0,0.718-0.008,1.075c0,0.325,0,0.623-0.004,0.93
					c-0.021,0.589-0.057,1.236-0.171,1.854c-0.104,0.613-0.279,1.155-0.54,1.67c-0.27,0.52-0.612,0.989-1.016,1.386
					c-0.413,0.418-0.882,0.759-1.399,1.023c-0.519,0.264-1.048,0.438-1.668,0.55c-0.641,0.116-1.304,0.147-1.869,0.163
					c-0.293,0.007-0.6,0.011-0.897,0.011l-1.084,0.002L8.445,39.125z"/>
			</g>
		</g>
	</g>
	<g>
		<g>
			<g>
				<g>
					<path style="fill:#FFFFFF;" d="M52.018,31.197V18.763h4.963c2.206,0,3.654,1.224,3.654,3.102c0,1.318-0.974,2.499-2.215,2.706
						v0.069c1.689,0.189,2.826,1.387,2.826,3.042c0,2.189-1.594,3.516-4.239,3.516H52.018z M53.948,24.054h2.163
						c1.672,0,2.594-0.689,2.594-1.922c0-1.155-0.793-1.792-2.189-1.792h-2.568V24.054z M56.611,29.621
						c1.741,0,2.663-0.715,2.663-2.059s-0.948-2.034-2.775-2.034h-2.551v4.093H56.611z"/>
					<path style="fill:#FFFFFF;" d="M62.229,26.665c0-2.912,1.715-4.696,4.3-4.696s4.3,1.784,4.3,4.696
						c0,2.921-1.706,4.705-4.3,4.705C63.935,31.37,62.229,29.586,62.229,26.665z M68.933,26.665c0-2.008-0.948-3.162-2.404-3.162
						c-1.456,0-2.404,1.155-2.404,3.162c0,2.016,0.948,3.171,2.404,3.171C67.993,29.836,68.933,28.681,68.933,26.665z"/>
					<path style="fill:#FFFFFF;" d="M71.934,26.665c0-2.912,1.715-4.696,4.3-4.696s4.3,1.784,4.3,4.696
						c0,2.921-1.706,4.705-4.3,4.705S71.934,29.586,71.934,26.665z M78.638,26.665c0-2.008-0.948-3.162-2.404-3.162
						c-1.456,0-2.404,1.155-2.404,3.162c0,2.016,0.948,3.171,2.404,3.171C77.699,29.836,78.638,28.681,78.638,26.665z"/>
					<path style="fill:#FFFFFF;" d="M87.46,22.133h2.189l-3.757,3.904l3.903,5.161h-2.163l-3.076-4.024L83.78,27.94v3.257h-1.861
						V18.763h1.861v7.255h0.017L87.46,22.133z"/>
					<path style="fill:#FFFFFF;" d="M93.716,21.969c2.111,0,3.481,1.172,3.542,2.844h-1.749c-0.103-0.879-0.75-1.43-1.792-1.43
						c-1.008,0-1.68,0.491-1.68,1.215c0,0.569,0.414,0.956,1.396,1.18l1.473,0.336c1.853,0.431,2.559,1.155,2.559,2.464
						c0,1.654-1.542,2.792-3.679,2.792c-2.266,0-3.628-1.112-3.8-2.835h1.844c0.172,0.948,0.819,1.413,1.956,1.413
						c1.12,0,1.809-0.465,1.809-1.206c0-0.586-0.336-0.931-1.327-1.155l-1.473-0.345c-1.723-0.396-2.577-1.224-2.577-2.542
						C90.218,23.08,91.631,21.969,93.716,21.969z"/>
				</g>
			</g>
		</g>
		<g>
			<path style="fill:#FFFFFF;" d="M46.792,21.081c-1.11-0.082-2.051,0.62-2.576,0.62c-0.533,0-1.354-0.602-2.226-0.586
				c-1.144,0.017-2.198,0.666-2.788,1.69c-1.188,2.062-0.303,5.118,0.854,6.792c0.566,0.818,1.241,1.739,2.128,1.706
				c0.854-0.034,1.177-0.552,2.208-0.552c1.031,0,1.322,0.552,2.225,0.536c0.919-0.017,1.501-0.835,2.063-1.657
				c0.65-0.949,0.917-1.868,0.933-1.917c-0.02-0.008-1.791-0.687-1.809-2.727c-0.016-1.706,1.392-2.525,1.456-2.565
				C48.462,21.243,47.227,21.114,46.792,21.081z"/>
			<path style="fill:#FFFFFF;" d="M46.108,19.977c0.471-0.57,0.788-1.363,0.701-2.152c-0.678,0.027-1.499,0.452-1.985,1.021
				c-0.436,0.504-0.818,1.312-0.714,2.085C44.865,20.989,45.637,20.547,46.108,19.977z"/>
		</g>
	</g>
	<g>
		<path style="fill:#FFFFFF;" d="M39.39,8.773h0.93v5.188h2.806v0.801H39.39V8.773z"/>
		<path style="fill:#FFFFFF;" d="M44.058,13.497v-0.009c0-0.805,0.606-1.274,1.681-1.34l1.221-0.071v-0.398
			c0-0.494-0.312-0.768-0.922-0.768c-0.498,0-0.826,0.183-0.934,0.502L45.1,11.43h-0.867l0.004-0.029
			c0.107-0.739,0.817-1.233,1.843-1.233c1.133,0,1.772,0.564,1.772,1.511v3.084h-0.893v-0.639h-0.07
			c-0.266,0.457-0.739,0.714-1.337,0.714C44.692,14.837,44.058,14.314,44.058,13.497z M45.793,14.119
			c0.672,0,1.166-0.439,1.166-1.021v-0.386l-1.1,0.071c-0.623,0.037-0.905,0.261-0.905,0.668v0.008
			C44.954,13.874,45.307,14.119,45.793,14.119z"/>
		<path style="fill:#FFFFFF;" d="M49.016,12.513v-0.008c0-1.428,0.723-2.328,1.867-2.328c0.619,0,1.146,0.307,1.387,0.792h0.07
			V8.487h0.896v6.275H52.34v-0.71h-0.07c-0.262,0.494-0.756,0.785-1.387,0.785C49.75,14.837,49.016,13.929,49.016,12.513z
			 M52.353,12.513v-0.008c0-0.963-0.465-1.557-1.212-1.557c-0.756,0-1.208,0.59-1.208,1.557v0.008c0,0.967,0.452,1.556,1.208,1.556
			C51.892,14.069,52.353,13.476,52.353,12.513z"/>
		<path style="fill:#FFFFFF;" d="M54.467,12.521v-0.004c0-1.407,0.813-2.35,2.071-2.35c1.257,0,2.029,0.909,2.029,2.262v0.315
			h-3.196c0.018,0.863,0.49,1.366,1.233,1.366c0.577,0,0.921-0.287,1.029-0.519l0.017-0.033l0.867-0.004l-0.008,0.038
			c-0.15,0.593-0.772,1.257-1.926,1.257C55.264,14.849,54.467,13.949,54.467,12.521z M55.384,12.102h2.291
			c-0.07-0.806-0.522-1.195-1.133-1.195C55.928,10.907,55.463,11.326,55.384,12.102z"/>
		<path style="fill:#FFFFFF;" d="M59.757,10.255h0.9v0.685h0.066c0.22-0.481,0.651-0.772,1.308-0.772
			c1.009,0,1.564,0.602,1.564,1.677v2.918h-0.896v-2.706c0-0.747-0.311-1.116-0.971-1.116s-1.071,0.452-1.071,1.179v2.644h-0.9
			V10.255z"/>
		<path style="fill:#FFFFFF;" d="M67.153,13.497v-0.009c0-0.805,0.606-1.274,1.681-1.34l1.221-0.071v-0.398
			c0-0.494-0.312-0.768-0.922-0.768c-0.498,0-0.826,0.183-0.934,0.502l-0.004,0.017h-0.867l0.004-0.029
			c0.107-0.739,0.817-1.233,1.843-1.233c1.133,0,1.772,0.564,1.772,1.511v3.084h-0.893v-0.639h-0.07
			c-0.266,0.457-0.739,0.714-1.337,0.714C67.788,14.837,67.153,14.314,67.153,13.497z M68.889,14.119
			c0.672,0,1.166-0.439,1.166-1.021v-0.386l-1.1,0.071c-0.623,0.037-0.905,0.261-0.905,0.668v0.008
			C68.05,13.874,68.402,14.119,68.889,14.119z"/>
		<path style="fill:#FFFFFF;" d="M72.295,13.173v-2.917h0.9v2.706c0,0.747,0.273,1.117,0.934,1.117c0.723,0,1.108-0.453,1.108-1.179
			v-2.644h0.896v4.507h-0.896v-0.681h-0.071c-0.215,0.485-0.672,0.768-1.328,0.768C72.821,14.849,72.295,14.24,72.295,13.173z"/>
		<path style="fill:#FFFFFF;" d="M77.982,10.965h-0.743v-0.709h0.743V9.782c0-0.896,0.456-1.336,1.395-1.336
			c0.203,0,0.377,0.017,0.531,0.042v0.66c-0.083-0.013-0.203-0.021-0.345-0.021c-0.498,0-0.693,0.241-0.693,0.697v0.432h1.001v0.709
			h-0.992v3.798h-0.896V10.965z"/>
	</g>
	<g>
		<linearGradient id="SVGID_1_" gradientUnits="userSpaceOnUse" x1="20.1299" y1="7.4181" x2="20.1299" y2="32.5821">
			<stop  offset="0" style="stop-color:#FFA800"/>
			<stop  offset="1" style="stop-color:#F9671E"/>
		</linearGradient>
		<path style="fill:url(#SVGID_1_);" d="M32.712,15.29c0-0.301,0-0.601-0.002-0.902c-0.002-0.253-0.004-0.506-0.011-0.759
			c-0.015-0.551-0.047-1.107-0.145-1.653c-0.099-0.554-0.262-1.069-0.518-1.572c-0.252-0.494-0.58-0.946-0.972-1.338
			c-0.392-0.392-0.844-0.721-1.338-0.972c-0.503-0.256-1.018-0.418-1.571-0.518c-0.545-0.098-1.102-0.131-1.653-0.145
			c-0.253-0.007-0.506-0.01-0.759-0.011c-0.301-0.002-0.601-0.002-0.902-0.002h-9.421c-0.301,0-0.601,0-0.902,0.002
			c-0.253,0.002-0.506,0.004-0.759,0.011c-0.551,0.015-1.108,0.047-1.653,0.145c-0.553,0.099-1.068,0.262-1.571,0.518
			c-0.494,0.252-0.946,0.58-1.338,0.972C8.804,9.458,8.476,9.91,8.224,10.404c-0.256,0.503-0.418,1.018-0.518,1.572
			c-0.098,0.545-0.13,1.101-0.145,1.653c-0.007,0.253-0.01,0.506-0.011,0.759c-0.002,0.301-0.002,0.601-0.002,0.902v9.421
			c0,0.301,0,0.601,0.002,0.902c0.002,0.253,0.004,0.506,0.011,0.759c0.015,0.551,0.047,1.107,0.145,1.653
			c0.099,0.554,0.262,1.069,0.518,1.572c0.252,0.494,0.58,0.946,0.972,1.338c0.392,0.392,0.844,0.721,1.338,0.972
			c0.503,0.256,1.018,0.418,1.571,0.518c0.545,0.098,1.102,0.131,1.653,0.145c0.253,0.007,0.506,0.01,0.759,0.011
			c0.301,0.002,0.601,0.002,0.902,0.002h9.421c0.301,0,0.601,0,0.902-0.002c0.253-0.002,0.506-0.004,0.759-0.011
			c0.551-0.015,1.108-0.047,1.653-0.145c0.553-0.099,1.068-0.262,1.571-0.518c0.494-0.252,0.946-0.58,1.338-0.972
			c0.392-0.392,0.721-0.844,0.972-1.338c0.256-0.503,0.418-1.018,0.518-1.572c0.098-0.545,0.13-1.101,0.145-1.653
			c0.007-0.253,0.01-0.506,0.011-0.759c0.002-0.301,0.002-0.601,0.002-0.902V15.29z"/>
		<path id="Glyph_00000147925370221047720460000016919342125240017548_" style="fill:#FFFFFF;" d="M28.055,26.463
			c0.291,0,0.463-0.179,0.463-0.448V15.637c0-0.232-0.007-0.321-0.09-0.456c-0.769-1.27-2.479-1.988-4.1-1.988
			c-1.471,0-2.845,0.568-3.637,1.599c-0.127,0.172-0.142,0.224-0.142,0.403v10.797c0,0.172,0.119,0.284,0.269,0.284
			c0.082,0,0.172-0.03,0.246-0.097c0.717-0.62,1.792-1.121,3.062-1.121c1.307,0,2.606,0.411,3.518,1.24
			C27.764,26.404,27.891,26.463,28.055,26.463z M12.205,26.463c-0.291,0-0.463-0.179-0.463-0.448V15.637
			c0-0.232,0.007-0.321,0.09-0.456c0.769-1.27,2.479-1.988,4.1-1.988c1.471,0,2.845,0.568,3.637,1.599
			c0.127,0.172,0.142,0.224,0.142,0.403v10.797c0,0.172-0.119,0.284-0.269,0.284c-0.082,0-0.172-0.03-0.246-0.097
			c-0.717-0.62-1.792-1.121-3.062-1.121c-1.307,0-2.606,0.411-3.518,1.24C12.496,26.404,12.369,26.463,12.205,26.463z"/>
	</g>
</g>
</svg>
