<?xml version="1.0" encoding="utf-8"?>
<!-- Generator: Adobe Illustrator 15.0.2, SVG Export Plug-In . SVG Version: 6.00 Build 0)  -->
<!DOCTYPE svg PUBLIC "-//W3C//DTD SVG 1.1//EN" "http://www.w3.org/Graphics/SVG/1.1/DTD/svg11.dtd">
<svg version="1.1" id="Gruppe_1_1_" xmlns="http://www.w3.org/2000/svg" xmlns:xlink="http://www.w3.org/1999/xlink" x="0px"
	 y="0px" width="599.925px" height="149.981px" viewBox="0 0 599.925 149.981" enable-background="new 0 0 599.925 149.981"
	 xml:space="preserve">
<g id="Form_1">
	<g>
		<path fill-rule="evenodd" clip-rule="evenodd" d="M263.311,102.367c0,6.356-2.697,9.396-6.956,9.396
			c-4.4,0-6.955-3.04-6.955-9.396V50.13h-12.066v52.926c0,12.438,4.684,19.347,16.183,19.347c4.116,0,8.942-2.349,10.22-5.526v4.422
			h11.64V50.13h-12.066V102.367z M302.912,49.025c-12.064,0-18.594,7.187-18.594,19.485v34.546c0,12.3,6.672,19.347,18.594,19.347
			c11.924,0,18.596-7.047,18.596-19.347v-4.697h-12.064v4.008c0,6.081-1.986,9.396-6.531,9.396c-4.541,0-6.527-3.315-6.527-9.396
			V69.063c0-5.943,1.986-9.396,6.527-9.396c4.545,0,6.531,3.316,6.531,9.396v4.145h12.064v-4.836
			C321.507,56.073,314.978,49.025,302.912,49.025z M271.402,28.711h-11.5v12.437h11.5V28.711z M211.499,49.025
			c-4.118,0-8.942,2.349-10.22,5.527V25.672h-12.066v95.626h11.64v-4.697c1.419,3.591,6.247,5.802,10.646,5.802
			c11.499,0,16.892-6.908,16.892-19.347V68.372C228.391,55.935,222.998,49.025,211.499,49.025z M216.325,102.367
			c0,6.356-2.98,9.396-7.523,9.396c-4.542,0-7.522-3.04-7.522-9.396V69.063c0-6.356,2.981-9.396,7.522-9.396
			c4.543,0,7.523,3.041,7.523,9.396V102.367z M252.807,28.711h-11.499v12.437h11.499V28.711z M449.103,121.298h14.195v-14.233
			h-14.195V121.298z M498.788,54.553c-1.277-3.178-6.104-5.527-10.222-5.527c-11.496,0-16.893,6.909-16.893,19.346v34.685
			c0,12.438,5.396,19.347,16.893,19.347c4.4,0,9.229-2.211,10.646-5.802v4.697h11.641V25.672h-12.065V54.553z M498.788,102.367
			c0,6.356-2.981,9.396-7.524,9.396s-7.523-3.04-7.523-9.396V69.063c0-6.356,2.98-9.396,7.523-9.396s7.524,3.041,7.524,9.396
			V102.367z M351.033,49.025c-3.975,0-8.518,2.349-9.795,5.527V25.672h-12.064v95.626h12.064V69.063
			c0-6.356,2.697-9.396,6.955-9.396c4.402,0,6.957,3.041,6.957,9.396v52.235h12.064V68.372
			C367.214,55.935,362.531,49.025,351.033,49.025z M558.832,88.962V68.372c0-12.298-7.382-19.346-19.59-19.346
			c-12.207,0-19.447,7.048-19.447,19.346v34.685c0,12.3,7.383,19.347,19.59,19.347s19.447-7.047,19.447-19.347v-4.697h-12.066v4.008
			c0,6.356-2.837,9.396-7.381,9.396c-4.543,0-7.523-3.04-7.523-9.396V88.962H558.832z M531.861,69.063
			c0-6.356,2.838-9.396,7.381-9.396c4.544,0,7.383,3.041,7.383,9.396v10.501h-14.764V69.063z M395.177,49.025
			c-12.207,0-19.445,7.048-19.445,19.346v34.685c0,12.3,7.379,19.347,19.588,19.347s19.445-7.047,19.445-19.347v-4.697h-12.064
			v4.008c0,6.356-2.84,9.396-7.381,9.396c-4.542,0-7.523-3.04-7.523-9.396V88.962h26.969V68.372
			C414.765,56.073,407.386,49.025,395.177,49.025z M402.558,79.564h-14.762V69.063c0-6.356,2.84-9.396,7.381-9.396
			c4.543,0,7.381,3.041,7.381,9.396V79.564z M451.671,49.578c-7.098-0.276-13.768,3.041-16.324,9.536V50.13h-11.781v71.168h12.066
			V75.419c0-10.501,6.953-14.924,16.039-13.542V49.578z"/>
	</g>
</g>
<g id="Form_4">
	<g>
		<path fill-rule="evenodd" clip-rule="evenodd" fill="#009A9D" d="M163.175,68.137l-16.194,16.193
			c-1.767,8.744-6.026,17.08-12.809,23.863c-6.774,6.771-15.107,11.028-23.845,12.792c-3.92,0.791-7.916,1.044-11.896,0.829
			c-3.222-0.168-6.42-0.667-9.557-1.505c-2.763-0.734-5.461-1.732-8.081-2.979c-2.412-1.146-4.739-2.512-6.965-4.099
			c-2.108-1.498-4.138-3.141-6.03-5.03c-0.004-0.006-0.006-0.008-0.01-0.01c-1.889-1.892-3.526-3.915-5.024-6.018l54.106-54.108
			c-2.468-1.455-5.087-2.554-7.784-3.277c-3.292-0.883-6.687-1.214-10.066-0.997L43.385,99.43c1.061,2.51,2.327,4.94,3.736,7.326
			c1.336,2.268,2.812,4.476,4.464,6.597c1.579,2.038,3.266,4.028,5.138,5.904c0.004,0,0.006,0.004,0.01,0.008
			c1.879,1.879,3.875,3.56,5.919,5.146c2.119,1.651,4.327,3.13,6.594,4.466c2.384,1.407,4.819,2.669,7.331,3.733
			c2.698,1.14,5.454,2.065,8.254,2.806c3.066,0.818,6.168,1.422,9.302,1.767c3.602,0.389,7.232,0.442,10.845,0.214
			c4.495-0.285,8.965-1.016,13.329-2.266c9.861-2.831,19.169-8.107,26.934-15.873c7.777-7.777,13.058-17.087,15.888-26.948
			c1.251-4.362,1.981-8.834,2.265-13.327C163.622,75.368,163.565,71.737,163.175,68.137z M67.427,42.199l0.752-0.753
			c6.73-6.579,14.929-10.736,23.528-12.467c3.912-0.785,7.901-1.025,11.875-0.809c3.214,0.179,6.413,0.677,9.548,1.514
			c2.761,0.739,5.458,1.735,8.076,2.989c2.408,1.149,4.729,2.518,6.957,4.104c2.102,1.498,4.127,3.138,6.016,5.025
			c0.002,0.002,0.004,0.004,0.01,0.011c1.891,1.891,3.536,3.922,5.033,6.028l-54.096,54.096c2.468,1.458,5.088,2.552,7.789,3.272
			c3.297,0.875,6.696,1.203,10.076,0.985l55.608-55.608c-1.063-2.511-2.326-4.942-3.733-7.328c-1.339-2.266-2.812-4.478-4.465-6.598
			c-1.584-2.044-3.269-4.036-5.145-5.915l-0.01-0.01c-1.875-1.875-3.864-3.558-5.903-5.14c-2.117-1.655-4.332-3.126-6.594-4.468
			c-2.384-1.409-4.815-2.672-7.329-3.734c-2.691-1.147-5.446-2.072-8.246-2.817c-3.064-0.818-6.167-1.42-9.297-1.769
			c-3.596-0.395-7.224-0.452-10.838-0.224c-4.49,0.282-8.955,1.006-13.313,2.252c-9.887,2.827-19.215,8.107-27.008,15.901
			c-7.782,7.779-13.059,17.105-15.886,26.992c-1.245,4.357-1.97,8.824-2.25,13.314c-0.23,3.616-0.171,7.242,0.223,10.841
			l16.171-16.173C56.702,57.116,60.857,48.918,67.427,42.199z"/>
	</g>
</g>
</svg>
