<svg id="Ebene_1" data-name="Ebene 1" xmlns="http://www.w3.org/2000/svg" viewBox="0 0 461.69438 503.5481"><path d="M527.5,401.5c0-110.01818,128-199.21126,145-199.21126,0,0-92-40.78874-200,36.21126,0,0-18.67432-27.31733,7-81,22-46,64-56,78-56s20.997-.07036,77,26c58,27,112,20,117,20,37,0,149-33,149-23s-65,90-65,90c-148,0-249,67-249,168,0,195,281,162,332.5,164.5L777,602S527.5,610.5,527.5,401.5Z" transform="translate(-464.44162 -100)" stroke="#000" stroke-miterlimit="10" stroke-width="3" fill="#000"/><polygon fill="#000" points="242.558 273 282.558 315 298.229 273 259.394 231.921 242.558 273"/></svg>
