<?xml version="1.0" encoding="UTF-8" standalone="no"?>
<!-- Created with Inkscape (http://www.inkscape.org/) -->
<svg
   xmlns:dc="http://purl.org/dc/elements/1.1/"
   xmlns:cc="http://web.resource.org/cc/"
   xmlns:rdf="http://www.w3.org/1999/02/22-rdf-syntax-ns#"
   xmlns:svg="http://www.w3.org/2000/svg"
   xmlns="http://www.w3.org/2000/svg"
   xmlns:sodipodi="http://sodipodi.sourceforge.net/DTD/sodipodi-0.dtd"
   xmlns:inkscape="http://www.inkscape.org/namespaces/inkscape"
   width="694.27557"
   height="163.55905"
   id="svg1931"
   sodipodi:version="0.32"
   inkscape:version="0.44"
   version="1.0"
   sodipodi:docbase="C:\Dokumente und Einstellungen\Andreas\Eigene Dateien\Eigene Bilder\sonstiges\Logos\Vektor\other"
   sodipodi:docname="Hugendubel.svg">
  <defs
     id="defs1933" />
  <sodipodi:namedview
     id="base"
     pagecolor="#ffffff"
     bordercolor="#666666"
     borderopacity="1.0"
     inkscape:pageopacity="0.0"
     inkscape:pageshadow="2"
     inkscape:zoom="0.35"
     inkscape:cx="350"
     inkscape:cy="520"
     inkscape:document-units="px"
     inkscape:current-layer="layer1"
     width="195.94mm"
     height="46.16mm"
     units="mm"
     inkscape:window-width="904"
     inkscape:window-height="574"
     inkscape:window-x="184"
     inkscape:window-y="184" />
  <metadata
     id="metadata1936">
    <rdf:RDF>
      <cc:Work
         rdf:about="">
        <dc:format>image/svg+xml</dc:format>
        <dc:type
           rdf:resource="http://purl.org/dc/dcmitype/StillImage" />
      </cc:Work>
    </rdf:RDF>
  </metadata>
  <g
     inkscape:label="Ebene 1"
     inkscape:groupmode="layer"
     id="layer1"
     transform="translate(230.3917,-247.3298)">
    <g
       transform="matrix(2.942213,0,0,2.942213,-236.3195,249.3847)"
       id="Ebene_x0020_1">
  <metadata
   id="CorelCorpID_0Corel-Layer" />

  <g
   id="_130416664">
   <polygon
   id="_174638200"
   points="3.82204,38.1701 128.597,38.1701 128.597,53.0844 3.82204,53.0844 3.82204,38.1701 "
   style="fill:red" />

   <polygon
   id="_130731264"
   points="23.3834,19.4073 23.3834,34.3071 30.1799,34.3071 30.1799,1.10926 23.3834,1.10926 23.3834,13.6856 10.7055,13.6856 10.7055,1.10926 3.90921,1.10926 3.90921,34.3071 10.7055,34.3071 10.7055,19.4073 23.3834,19.4073 "
   style="fill:black" />

   <polygon
   id="_174625368"
   points="54.4611,9.70637 48.1149,9.70637 48.1149,23.8947 48.1149,24.3013 48.0858,24.6788 48.0423,25.0565 47.9988,25.405 47.9261,25.7244 47.839,26.044 47.7518,26.3489 47.6502,26.6248 47.5339,26.8862 47.4033,27.1477 47.2726,27.38 47.1128,27.5978 46.9677,27.8011 46.8079,28.0044 46.6335,28.1788 46.4594,28.3384 46.2706,28.4982 46.0817,28.6289 45.893,28.7596 45.6897,28.8759 45.4863,28.992 45.283,29.0792 45.0797,29.1662 44.8619,29.2388 44.6586,29.2969 44.4553,29.3551 44.2374,29.3986 44.0341,29.4277 43.8308,29.4567 43.6275,29.4712 43.4242,29.4858 43.2209,29.4858 42.8578,29.4858 42.4947,29.4567 42.1172,29.3986 41.7541,29.3114 41.5799,29.2679 41.4056,29.2099 41.2314,29.1372 41.0716,29.0646 40.8974,28.9774 40.7376,28.8759 40.5778,28.7596 40.4326,28.6435 40.2873,28.5128 40.1566,28.3821 40.026,28.2223 39.8953,28.0625 39.7791,27.8883 39.6629,27.685 39.5613,27.4817 39.4741,27.2638 39.3869,27.0314 39.3145,26.7846 39.2563,26.5233 39.1982,26.2473 39.1547,25.9569 39.1256,25.6373 39.111,25.3033 39.0966,24.9547 39.0966,9.70637 32.7648,9.70637 32.7648,25.8842 32.7794,26.465 32.8085,27.0314 32.852,27.5687 32.9246,28.0771 33.0118,28.5854 33.1133,29.0501 33.2296,29.5147 33.3749,29.9505 33.5345,30.3716 33.7089,30.7782 33.8976,31.1557 34.1009,31.5188 34.3188,31.8528 34.5656,32.1869 34.8125,32.4918 35.0739,32.7677 35.3644,33.0437 35.6549,33.2906 35.9597,33.5229 36.2793,33.7407 36.6133,33.9295 36.9473,34.1184 37.3104,34.278 37.6733,34.4087 38.051,34.5394 38.443,34.6557 38.8351,34.7427 39.2419,34.8153 39.6629,34.8735 40.084,34.9171 40.5197,34.9462 40.9555,34.9462 41.2749,34.9462 41.5799,34.9316 41.8848,34.9025 42.1753,34.8735 42.4658,34.8444 42.7562,34.7864 43.0466,34.7427 43.3225,34.6702 43.584,34.5976 43.8599,34.525 44.1213,34.4378 44.3681,34.3361 44.6295,34.2345 44.8619,34.1184 45.1089,34.0021 45.3411,33.8714 45.5735,33.7407 45.7914,33.5955 46.0091,33.4503 46.2269,33.2906 46.4302,33.1308 46.6335,32.9565 46.8225,32.7823 47.0112,32.5935 47.1999,32.3902 47.3743,32.1869 47.5339,31.9835 47.7083,31.7658 47.8681,31.5479 48.0132,31.3155 48.1584,31.0833 48.3036,30.8363 48.3908,30.8363 48.3908,34.3071 54.4611,34.3071 54.4611,9.70637 "
   style="fill:black" />

   <path
   id="_130804104"
   d="M 97.7083,27.0895 L 97.66479,27.249294 L 97.606726,27.409088 L 97.534106,27.554327 L 97.475887,27.713966 L 97.388868,27.84465 L 97.301693,27.989889 L 97.214519,28.120573 L 97.112945,28.251412 L 97.011216,28.367541 L 96.909642,28.48367 L 96.793358,28.599954 L 96.677229,28.701528 L 96.415861,28.904831 L 96.154493,29.093579 L 95.864016,29.253373 L 95.573539,29.384057 L 95.268507,29.500186 L 94.949075,29.601915 L 94.629643,29.674534 L 94.295656,29.732599 L 93.976069,29.761709 L 93.642082,29.776109 L 93.177411,29.761709 L 92.72714,29.718044 L 92.320534,29.65998 L 91.928482,29.58736 L 91.565385,29.485786 L 91.231398,29.369502 L 90.911966,29.238818 L 90.621489,29.093579 L 90.345566,28.919385 L 90.098598,28.745037 L 89.86634,28.556289 L 89.648482,28.352986 L 89.445179,28.149683 L 89.270831,27.91727 L 89.111192,27.699567 L 88.951398,27.452599 L 88.820714,27.220341 L 88.704585,26.973373 L 88.588301,26.72656 L 88.501282,26.479592 L 88.414108,26.218224 L 88.341488,25.971411 L 88.268869,25.724443 L 88.225359,25.47763 L 88.12363,24.998404 L 88.065566,24.548133 L 88.007501,24.126972 L 87.978391,23.76403 L 104.50479,23.76403 L 104.50479,22.60212 L 104.49024,21.57105 L 104.43217,20.598198 L 104.345,19.668701 L 104.21431,18.797424 L 104.05452,17.969656 L 103.86577,17.185398 L 103.64791,16.444804 L 103.4155,15.74772 L 103.13958,15.094146 L 102.8347,14.484236 L 102.51511,13.917836 L 102.18113,13.380546 L 101.81818,12.886765 L 101.44053,12.436649 L 101.04848,12.015488 L 100.62732,11.623436 L 100.20616,11.260339 L 99.770443,10.940752 L 99.320327,10.650429 L 98.855501,10.388906 L 98.39083,10.142093 L 97.926159,9.9387902 L 97.446933,9.7500422 L 96.967707,9.5902482 L 96.473926,9.4595642 L 95.9947,9.3434352 L 95.515474,9.256261 L 95.036248,9.1836416 L 94.571577,9.1255771 L 94.092351,9.0819126 L 93.64208,9.0675126 L 93.191964,9.0529578 L 92.218958,9.0819126 L 91.318571,9.1690868 L 90.461694,9.2997708 L 89.663036,9.4741188 L 88.907888,9.6919768 L 88.196249,9.9533448 L 87.542675,10.258222 L 86.932765,10.592364 L 86.351965,10.955306 L 85.829075,11.347512 L 85.335294,11.768518 L 84.899733,12.218789 L 84.478572,12.68346 L 84.10092,13.162686 L 83.766933,13.656467 L 83.447501,14.164802 L 83.171578,14.687537 L 82.92461,15.210427 L 82.706907,15.733162 L 82.503604,16.255897 L 82.329256,16.778787 L 82.184017,17.301522 L 82.067888,17.809857 L 81.951759,18.303638 L 81.864585,18.782864 L 81.791965,19.247535 L 81.733901,19.697806 L 81.704791,20.104412 L 81.675836,20.511018 L 81.646727,20.874115 L 81.632172,21.193547 L 81.632172,21.498424 L 81.646727,22.427921 L 81.690236,23.313753 L 81.762856,24.17063 L 81.87914,24.983843 L 82.009824,25.753546 L 82.155063,26.49414 L 82.343811,27.205779 L 82.561669,27.873753 L 82.793927,28.498218 L 83.05545,29.093573 L 83.331373,29.659973 L 83.63625,30.197263 L 83.970237,30.705598 L 84.318779,31.170269 L 84.696431,31.605985 L 85.088483,32.012591 L 85.509644,32.390243 L 85.930805,32.738785 L 86.380921,33.072772 L 86.860147,33.363095 L 87.339373,33.624618 L 87.847708,33.871431 L 88.356043,34.074734 L 88.893333,34.263482 L 89.445178,34.43783 L 90.011578,34.568514 L 90.577823,34.684643 L 91.173333,34.786372 L 91.768688,34.858991 L 92.378598,34.902501 L 93.003063,34.931611 L 93.642082,34.946165 L 94.019734,34.946165 L 94.411786,34.917056 L 94.818392,34.887946 L 95.210444,34.858991 L 95.60265,34.800927 L 96.009256,34.728307 L 96.401308,34.641133 L 96.79336,34.553959 L 97.199966,34.43783 L 97.592172,34.321701 L 97.969669,34.176462 L 98.361875,34.016668 L 98.739372,33.842474 L 99.117024,33.668126 L 99.494521,33.464823 L 99.857618,33.23241 L 100.20616,33.000152 L 100.5547,32.738784 L 100.90324,32.462861 L 101.23723,32.172384 L 101.55666,31.867352 L 101.86169,31.533365 L 102.16657,31.184823 L 102.45705,30.807326 L 102.73297,30.41512 L 102.99434,30.008514 L 103.24131,29.572798 L 103.47372,29.122682 L 103.69142,28.643456 L 103.88033,28.149675 L 104.06907,27.62694 L 104.24327,27.089495 L 97.708299,27.089495 L 97.7083,27.0895 z M 88.15274,19.55257 L 88.19625,19.247538 L 88.239759,18.957061 L 88.297979,18.681138 L 88.356043,18.405215 L 88.414108,18.129292 L 88.486727,17.867924 L 88.573901,17.621111 L 88.660921,17.374143 L 88.76265,17.141885 L 88.864224,16.924027 L 88.965953,16.706169 L 89.096637,16.488311 L 89.212766,16.299563 L 89.358005,16.09626 L 89.488689,15.921912 L 89.648483,15.747718 L 89.793722,15.587924 L 89.967916,15.442685 L 90.142264,15.297446 L 90.316458,15.166762 L 90.505361,15.036078 L 90.694109,14.919949 L 90.897412,14.81822 L 91.11527,14.731201 L 91.333128,14.644026 L 91.565386,14.571407 L 91.797799,14.513342 L 92.044612,14.469678 L 92.29158,14.426168 L 92.552948,14.397059 L 92.814316,14.382659 L 93.090239,14.382659 L 93.293542,14.382659 L 93.48229,14.397059 L 93.671193,14.411613 L 93.874496,14.440723 L 94.077799,14.469678 L 94.266547,14.513342 L 94.46985,14.571407 L 94.673153,14.629471 L 94.861901,14.702091 L 95.065204,14.77471 L 95.254107,14.861884 L 95.442855,14.963458 L 95.631603,15.079587 L 95.820351,15.195871 L 95.994699,15.326555 L 96.168893,15.471794 L 96.343241,15.631433 L 96.503035,15.791227 L 96.662674,15.979975 L 96.822468,16.168878 L 96.967707,16.372181 L 97.098391,16.590039 L 97.229075,16.822297 L 97.359759,17.069265 L 97.475888,17.330633 L 97.577617,17.606556 L 97.664791,17.882479 L 97.75181,18.187356 L 97.82443,18.506943 L 97.897049,18.84093 L 97.940714,19.189472 L 97.984223,19.552569 L 88.152743,19.552569 L 88.15274,19.55257 z "
   style="fill:black" />

   <polygon
   id="_21419224"
   points="128.249,17.2871 128.234,16.7933 128.205,16.2996 128.147,15.8349 128.074,15.3846 127.987,14.9489 127.871,14.5133 127.74,14.1067 127.595,13.7145 127.435,13.337 127.247,12.9885 127.043,12.6399 126.84,12.306 126.608,11.9864 126.361,11.6961 126.099,11.4056 125.823,11.1442 125.533,10.8972 125.228,10.6648 124.909,10.4471 124.589,10.2438 124.241,10.0549 123.892,9.88072 123.529,9.72093 123.166,9.59025 122.774,9.45956 122.382,9.35783 121.99,9.27081 121.583,9.19819 121.162,9.14013 120.741,9.09646 120.305,9.06751 119.869,9.05295 119.448,9.06751 119.042,9.09646 118.649,9.12557 118.272,9.18364 117.909,9.2417 117.575,9.32888 117.241,9.41605 116.921,9.51763 116.616,9.63375 116.326,9.75004 116.05,9.88072 115.789,10.0114 115.542,10.1566 115.295,10.3164 115.063,10.4761 114.845,10.6359 114.641,10.7957 114.438,10.9699 114.264,11.1442 114.075,11.3184 113.756,11.6669 113.465,12.03 113.218,12.3786 112.986,12.7126 112.783,13.0174 112.623,13.3079 112.521,13.3079 112.521,9.70637 106.451,9.70637 106.451,34.3071 112.797,34.3071 112.797,20.206 112.811,19.8574 112.826,19.5235 112.855,19.1895 112.899,18.8844 112.957,18.5796 113.015,18.2891 113.087,17.9986 113.175,17.7372 113.276,17.4759 113.392,17.2289 113.509,16.9821 113.639,16.7497 113.77,16.5464 113.915,16.3285 114.075,16.1398 114.235,15.951 114.409,15.7767 114.583,15.617 114.772,15.4718 114.975,15.3266 115.179,15.1959 115.382,15.0796 115.6,14.978 115.818,14.8763 116.05,14.7893 116.282,14.7166 116.515,14.6586 116.762,14.6004 117.008,14.5714 117.255,14.5423 117.517,14.5277 117.778,14.5133 118.141,14.5277 118.49,14.5423 118.809,14.586 119.114,14.644 119.39,14.7166 119.651,14.8037 119.898,14.9054 120.131,15.0215 120.334,15.1378 120.523,15.283 120.697,15.4281 120.857,15.5734 121.002,15.7332 121.133,15.9074 121.249,16.0817 121.351,16.2705 121.452,16.4592 121.525,16.6481 121.597,16.8369 121.656,17.0402 121.714,17.2435 121.757,17.4468 121.801,17.6501 121.83,17.8534 121.873,18.2456 121.888,18.6376 121.902,19.0151 121.902,19.3637 121.902,34.3071 128.249,34.3071 128.249,17.2871 "
   style="fill:black" />

   <path
   id="_21419368"
   d="M 153.43,1.10926 L 147.08378,1.10926 L 147.08378,12.90136 L 146.99676,12.90136 L 146.79346,12.596328 L 146.5756,12.276896 L 146.32863,11.957464 L 146.05271,11.637877 L 145.76239,11.30389 L 145.42824,10.999013 L 145.25405,10.839219 L 145.0653,10.679425 L 144.862,10.534186 L 144.6587,10.388947 L 144.45539,10.243863 L 144.22298,10.113024 L 143.99057,9.98234 L 143.75831,9.866211 L 143.51134,9.735527 L 143.24997,9.633798 L 142.97405,9.532224 L 142.68357,9.4450498 L 142.3931,9.3578756 L 142.08822,9.2852562 L 141.78319,9.2127917 L 141.4492,9.1545723 L 141.11521,9.1110626 L 140.75212,9.0819529 L 140.38902,9.0675529 L 140.02608,9.0529981 L 139.51774,9.0675529 L 139.03852,9.1110626 L 138.54473,9.1691271 L 138.06551,9.2563013 L 137.60084,9.3578753 L 137.12161,9.5031143 L 136.67134,9.6629083 L 136.22122,9.8371023 L 135.78551,10.05496 L 135.34995,10.287373 L 134.92879,10.548741 L 134.52218,10.824664 L 134.12997,11.129696 L 133.75248,11.463683 L 133.37483,11.82678 L 133.02628,12.204277 L 132.6923,12.610883 L 132.37286,13.046599 L 132.06783,13.496715 L 131.77736,13.975941 L 131.51599,14.484276 L 131.26917,15.021566 L 131.03676,15.573411 L 130.83346,16.154366 L 130.64471,16.764276 L 130.48492,17.403295 L 130.33968,18.056714 L 130.22355,18.739243 L 130.13637,19.450882 L 130.06375,20.177076 L 130.02025,20.946624 L 130.00569,21.730882 L 130.02025,22.355347 L 130.0492,22.979812 L 130.09286,23.604277 L 130.15093,24.228742 L 130.2381,24.838652 L 130.33968,25.448562 L 130.45581,26.044072 L 130.58665,26.639427 L 130.74628,27.220382 L 130.92063,27.786627 L 131.12394,28.338472 L 131.32724,28.875917 L 131.57405,29.398652 L 131.82102,29.906987 L 132.09694,30.400613 L 132.40182,30.865439 L 132.72141,31.315555 L 133.05539,31.751271 L 133.41834,32.157877 L 133.79599,32.549929 L 134.20259,32.898471 L 134.63831,33.247013 L 135.07403,33.552045 L 135.55325,33.827968 L 136.04688,34.089336 L 136.55521,34.307194 L 137.10706,34.495942 L 137.6589,34.655736 L 138.25426,34.78642 L 138.86432,34.873594 L 139.50319,34.931659 L 140.15676,34.946214 L 140.65054,34.931659 L 141.14432,34.902549 L 141.63795,34.844485 L 142.13173,34.757311 L 142.3787,34.699246 L 142.62551,34.641182 L 142.87232,34.568562 L 143.10474,34.495943 L 143.35171,34.408769 L 143.58396,34.321749 L 143.81638,34.22002 L 144.04863,34.118446 L 144.28105,34.002162 L 144.49891,33.871478 L 144.71676,33.740794 L 144.93462,33.61011 L 145.15232,33.464871 L 145.35563,33.305077 L 145.55909,33.130883 L 145.76239,32.956535 L 145.95114,32.767787 L 146.13988,32.579039 L 146.32863,32.375736 L 146.50298,32.157878 L 146.66277,31.94002 L 146.82241,31.707607 L 146.98221,31.460794 L 147.12745,31.199426 L 147.21462,31.199426 L 147.21462,34.307196 L 153.43,34.307196 L 153.43,1.1092962 L 153.43,1.10926 z M 136.5261,22.18106 L 136.54065,21.817963 L 136.55521,21.469421 L 136.56976,21.106324 L 136.59872,20.743227 L 136.64238,20.394685 L 136.68589,20.046298 L 136.74396,19.712156 L 136.80202,19.378169 L 136.8892,19.044182 L 136.97637,18.72475 L 137.06355,18.405163 L 137.17967,18.100286 L 137.2958,17.795254 L 137.42649,17.504777 L 137.55733,17.228854 L 137.71697,16.967486 L 137.87676,16.706118 L 138.05095,16.45915 L 138.23986,16.226892 L 138.44316,16.009034 L 138.66102,15.805731 L 138.87872,15.616983 L 139.12569,15.442635 L 139.3725,15.282996 L 139.64842,15.137757 L 139.92435,15.021473 L 140.22938,14.905344 L 140.53426,14.81817 L 140.85384,14.74555 L 141.20239,14.702041 L 141.55093,14.658531 L 141.92842,14.658531 L 142.32048,14.658531 L 142.69813,14.702041 L 143.06123,14.760105 L 143.40977,14.832725 L 143.7292,14.934454 L 144.03423,15.050583 L 144.32455,15.181267 L 144.60048,15.341061 L 144.862,15.5007 L 145.10881,15.689603 L 145.34123,15.892906 L 145.55908,16.125164 L 145.74783,16.357577 L 145.93658,16.60439 L 146.11093,16.865913 L 146.27057,17.127281 L 146.41581,17.417758 L 146.54649,17.708081 L 146.67717,18.013113 L 146.7789,18.332545 L 146.88048,18.652132 L 146.96765,18.986119 L 147.05483,19.320106 L 147.11289,19.668648 L 147.18551,20.01719 L 147.22902,20.365732 L 147.27268,20.728829 L 147.30164,21.091771 L 147.3453,21.817965 L 147.3597,22.558559 L 147.3597,22.907101 L 147.3453,23.241088 L 147.31619,23.575075 L 147.28708,23.909217 L 147.24357,24.243204 L 147.18551,24.562636 L 147.12744,24.882068 L 147.04027,25.201655 L 146.96765,25.521087 L 146.86608,25.811564 L 146.76435,26.116596 L 146.64822,26.406919 L 146.51754,26.682842 L 146.3723,26.944365 L 146.22706,27.205733 L 146.06726,27.467101 L 145.89307,27.699514 L 145.70417,27.931772 L 145.50086,28.14963 L 145.28316,28.352933 L 145.0653,28.541681 L 144.83289,28.730584 L 144.58608,28.890223 L 144.32455,29.035462 L 144.04863,29.166146 L 143.75831,29.29683 L 143.45328,29.398559 L 143.13384,29.471178 L 142.81426,29.543797 L 142.46571,29.587307 L 142.11717,29.616417 L 141.73968,29.630972 L 141.36202,29.616417 L 141.01348,29.572752 L 140.66494,29.514688 L 140.34551,29.427668 L 140.04063,29.325939 L 139.75015,29.195255 L 139.47423,29.050016 L 139.21286,28.875822 L 138.96589,28.686919 L 138.73348,28.498171 L 138.50122,28.280313 L 138.29792,28.048055 L 138.10917,27.801087 L 137.93482,27.539719 L 137.76063,27.278351 L 137.61539,27.002428 L 137.47015,26.711951 L 137.33947,26.421474 L 137.20878,26.130997 L 137.10706,25.82612 L 137.00548,25.521088 L 136.91831,25.201656 L 136.84569,24.896624 L 136.77307,24.577192 L 136.715,24.27216 L 136.65694,23.952728 L 136.62783,23.647696 L 136.58432,23.342819 L 136.54066,22.747309 L 136.5261,22.181064 L 136.5261,22.18106 z "
   style="fill:black" />

   <polygon
   id="_174688624"
   points="177.653,9.70637 171.322,9.70637 171.322,23.8947 171.307,24.3013 171.293,24.6788 171.249,25.0565 171.191,25.405 171.133,25.7244 171.046,26.044 170.959,26.3489 170.842,26.6248 170.726,26.8862 170.61,27.1477 170.465,27.38 170.32,27.5978 170.16,27.8011 170,28.0044 169.826,28.1788 169.652,28.3384 169.477,28.4982 169.289,28.6289 169.085,28.7596 168.896,28.8759 168.693,28.992 168.49,29.0792 168.272,29.1662 168.069,29.2388 167.865,29.2969 167.647,29.3551 167.444,29.3986 167.241,29.4277 167.023,29.4567 166.82,29.4712 166.616,29.4858 166.428,29.4858 166.065,29.4858 165.687,29.4567 165.324,29.3986 164.961,29.3114 164.787,29.2679 164.612,29.2099 164.438,29.1372 164.264,29.0646 164.104,28.9774 163.944,28.8759 163.785,28.7596 163.639,28.6435 163.494,28.5128 163.349,28.3821 163.218,28.2223 163.102,28.0625 162.971,27.8883 162.87,27.685 162.768,27.4817 162.681,27.2638 162.594,27.0314 162.521,26.7846 162.449,26.5233 162.405,26.2473 162.361,25.9569 162.332,25.6373 162.318,25.3033 162.303,24.9547 162.303,9.70637 155.972,9.70637 155.972,25.8842 155.972,26.465 156.001,27.0314 156.059,27.5687 156.117,28.0771 156.204,28.5854 156.32,29.0501 156.436,29.5147 156.582,29.9505 156.727,30.3716 156.901,30.7782 157.104,31.1557 157.308,31.5188 157.525,31.8528 157.758,32.1869 158.019,32.4918 158.281,32.7677 158.557,33.0437 158.847,33.2906 159.152,33.5229 159.471,33.7407 159.805,33.9295 160.154,34.1184 160.503,34.278 160.88,34.4087 161.258,34.5394 161.635,34.6557 162.042,34.7427 162.449,34.8153 162.855,34.8735 163.291,34.9171 163.726,34.9462 164.162,34.9462 164.482,34.9462 164.787,34.9316 165.077,34.9025 165.382,34.8735 165.672,34.8444 165.963,34.7864 166.239,34.7427 166.515,34.6702 166.791,34.5976 167.052,34.525 167.313,34.4378 167.575,34.3361 167.822,34.2345 168.069,34.1184 168.316,34.0021 168.548,33.8714 168.766,33.7407 168.998,33.5955 169.216,33.4503 169.419,33.2906 169.637,33.1308 169.826,32.9565 170.029,32.7823 170.218,32.5935 170.392,32.3902 170.566,32.1869 170.741,31.9835 170.9,31.7658 171.06,31.5479 171.22,31.3155 171.365,31.0833 171.496,30.8363 171.583,30.8363 171.583,34.3071 177.653,34.3071 177.653,9.70637 "
   style="fill:black" />

   <path
   id="_21419344"
   d="M 197.142,22.1811 L 197.12745,22.747345 L 197.08394,23.342855 L 197.04027,23.647732 L 197.01132,23.952764 L 196.95325,24.272196 L 196.89503,24.577228 L 196.82241,24.89666 L 196.74995,25.201692 L 196.66277,25.521124 L 196.56105,25.826156 L 196.45947,26.131033 L 196.32879,26.42151 L 196.1981,26.711987 L 196.06726,27.002464 L 195.90763,27.278387 L 195.73328,27.539755 L 195.55908,27.801123 L 195.37034,28.048091 L 195.16688,28.280349 L 194.93462,28.498207 L 194.70221,28.686955 L 194.45539,28.875858 L 194.19403,29.050052 L 193.9181,29.195291 L 193.62763,29.325975 L 193.32259,29.427704 L 193.00316,29.514723 L 192.65462,29.572788 L 192.30608,29.616452 L 191.92843,29.631007 L 191.55093,29.616452 L 191.20239,29.587343 L 190.85384,29.543833 L 190.53441,29.471214 L 190.21483,29.398594 L 189.90995,29.296865 L 189.61947,29.166181 L 189.34355,29.035497 L 189.08218,28.890258 L 188.83521,28.730619 L 188.60295,28.541716 L 188.3851,28.352968 L 188.16724,28.149665 L 187.96394,27.931807 L 187.77519,27.699549 L 187.60084,27.467136 L 187.44105,27.205768 L 187.29596,26.9444 L 187.15072,26.682877 L 187.02004,26.406954 L 186.90375,26.116631 L 186.80218,25.811599 L 186.70045,25.521122 L 186.62783,25.20169 L 186.54066,24.882103 L 186.48259,24.562671 L 186.42453,24.243239 L 186.38102,23.909252 L 186.35191,23.57511 L 186.32295,23.241123 L 186.32295,22.907136 L 186.3084,22.558594 L 186.32295,21.818 L 186.36646,21.091806 L 186.39557,20.728864 L 186.43908,20.365767 L 186.48259,20.017225 L 186.55521,19.668683 L 186.61328,19.320141 L 186.70045,18.986154 L 186.78763,18.652167 L 186.8892,18.33258 L 186.99093,18.013148 L 187.12161,17.708116 L 187.2523,17.417793 L 187.39754,17.127316 L 187.55733,16.865948 L 187.73152,16.604425 L 187.92027,16.357612 L 188.10917,16.125199 L 188.32703,15.892941 L 188.55929,15.689638 L 188.80626,15.500735 L 189.06763,15.341096 L 189.34355,15.181302 L 189.63403,15.050618 L 189.9389,14.934489 L 190.25849,14.83276 L 190.60703,14.760141 L 190.96997,14.702076 L 191.34763,14.658567 L 191.73968,14.658567 L 192.11733,14.658567 L 192.46587,14.702076 L 192.81441,14.745586 L 193.13385,14.818205 L 193.43888,14.90538 L 193.74376,15.021509 L 194.01968,15.137793 L 194.2956,15.283032 L 194.54257,15.442671 L 194.78938,15.617019 L 195.00724,15.805767 L 195.2251,16.00907 L 195.4284,16.226928 L 195.61715,16.459186 L 195.79134,16.706154 L 195.95114,16.967522 L 196.11093,17.22889 L 196.24162,17.504813 L 196.3723,17.79529 L 196.48843,18.100322 L 196.60471,18.405199 L 196.69173,18.724786 L 196.77891,19.044218 L 196.86608,19.378205 L 196.92414,19.712192 L 196.98221,20.046334 L 197.02587,20.394721 L 197.06938,20.743263 L 197.09834,21.10636 L 197.11289,21.469457 L 197.12745,21.817999 L 197.142,22.181096 L 197.142,22.1811 z M 186.5843,1.1093 L 180.23808,1.1093 L 180.23808,34.3072 L 186.45362,34.3072 L 186.45362,31.19943 L 186.54064,31.19943 L 186.68588,31.460798 L 186.84567,31.707611 L 187.00547,31.940024 L 187.16511,32.157882 L 187.33945,32.37574 L 187.5282,32.579043 L 187.71695,32.767791 L 187.90585,32.956539 L 188.10916,33.130887 L 188.31246,33.305081 L 188.51576,33.464875 L 188.73362,33.610114 L 188.95148,33.740798 L 189.16918,33.871482 L 189.38704,34.002166 L 189.61945,34.11845 L 189.85171,34.220024 L 190.08412,34.321753 L 190.31654,34.408772 L 190.56335,34.495947 L 190.79576,34.568566 L 191.04257,34.641185 L 191.28954,34.69925 L 191.53636,34.757314 L 192.03014,34.844489 L 192.52392,34.902553 L 193.0177,34.931663 L 193.51132,34.946218 L 194.1649,34.931663 L 194.80392,34.873598 L 195.41383,34.786424 L 196.00918,34.65574 L 196.56103,34.495946 L 197.11287,34.307198 L 197.62121,34.08934 L 198.11499,33.827972 L 198.59421,33.552049 L 199.02978,33.247017 L 199.46549,32.898475 L 199.8721,32.549933 L 200.24975,32.157881 L 200.61285,31.751275 L 200.94683,31.315559 L 201.26627,30.865443 L 201.5713,30.400617 L 201.84722,29.906991 L 202.09403,29.398656 L 202.34085,28.875921 L 202.5443,28.338476 L 202.74761,27.786631 L 202.9218,27.220386 L 203.0816,26.639431 L 203.21228,26.044076 L 203.32841,25.448566 L 203.43014,24.838656 L 203.51716,24.228746 L 203.57538,23.604281 L 203.61889,22.979816 L 203.648,22.355351 L 203.6624,21.730886 L 203.648,20.946628 L 203.60433,20.17708 L 203.53171,19.450886 L 203.44454,18.739247 L 203.32841,18.056718 L 203.18317,17.403299 L 203.02353,16.76428 L 202.83463,16.15437 L 202.63132,15.573415 L 202.39907,15.02157 L 202.1521,14.48428 L 201.89073,13.975945 L 201.60025,13.496719 L 201.29538,13.046603 L 200.97579,12.610887 L 200.6418,12.204281 L 200.29326,11.826784 L 199.91576,11.463687 L 199.53811,11.1297 L 199.14606,10.824668 L 198.73945,10.548745 L 198.31829,10.287377 L 197.88258,10.054964 L 197.44686,9.8371061 L 196.99674,9.6629121 L 196.54647,9.5031181 L 196.06725,9.3578791 L 195.60258,9.2563051 L 195.12335,9.1691309 L 194.62957,9.1110664 L 194.15034,9.0675567 L 193.64216,9.0530019 L 193.27907,9.0675567 L 192.91597,9.0819567 L 192.55287,9.1110664 L 192.21888,9.1545761 L 191.89945,9.2127955 L 191.57987,9.28526 L 191.27499,9.3578794 L 190.98451,9.4450536 L 190.69403,9.5322278 L 190.41811,9.6338018 L 190.15674,9.7355308 L 189.90993,9.8662148 L 189.67752,9.9823438 L 189.4451,10.113028 L 189.21285,10.243867 L 189.00954,10.388951 L 188.80624,10.53419 L 188.60294,10.679429 L 188.41403,10.839223 L 188.23984,10.999017 L 187.90585,11.303894 L 187.61538,11.637881 L 187.33945,11.957468 L 187.09249,12.2769 L 186.87478,12.596332 L 186.67148,12.901364 L 186.58431,12.901364 L 186.58431,1.1092638 L 186.5843,1.1093 z "
   style="fill:black" />

   <path
   id="_174688576"
   d="M 221.365,27.0895 L 221.32134,27.249294 L 221.26327,27.409088 L 221.19065,27.554327 L 221.11803,27.713966 L 221.04541,27.84465 L 220.95839,27.989889 L 220.87122,28.120573 L 220.76949,28.251412 L 220.66792,28.367541 L 220.55163,28.48367 L 220.45006,28.599954 L 220.31937,28.701528 L 220.07241,28.904831 L 219.81104,29.093579 L 219.52056,29.253373 L 219.23024,29.384057 L 218.92521,29.500186 L 218.60577,29.601915 L 218.28619,29.674534 L 217.9522,29.732599 L 217.61821,29.761709 L 217.29878,29.776109 L 216.81956,29.761709 L 216.38384,29.718044 L 215.97723,29.65998 L 215.58503,29.58736 L 215.22209,29.485786 L 214.8881,29.369502 L 214.56851,29.238818 L 214.27803,29.093579 L 214.00211,28.919385 L 213.74074,28.745037 L 213.50849,28.556289 L 213.30518,28.352986 L 213.10172,28.149683 L 212.92753,27.91727 L 212.75334,27.699567 L 212.6081,27.452599 L 212.47741,27.220341 L 212.36113,26.973373 L 212.245,26.72656 L 212.15783,26.479592 L 212.07065,26.218224 L 211.99803,25.971411 L 211.92557,25.724443 L 211.86735,25.47763 L 211.78033,24.998404 L 211.72211,24.548133 L 211.66405,24.126972 L 211.63509,23.76403 L 228.16129,23.76403 L 228.16129,22.60212 L 228.14674,21.57105 L 228.08867,20.598198 L 228.00165,19.668701 L 227.87081,18.797424 L 227.71117,17.969656 L 227.52227,17.185398 L 227.30457,16.444804 L 227.0576,15.74772 L 226.79623,15.094146 L 226.4912,14.484236 L 226.17177,13.917836 L 225.83778,13.380546 L 225.47468,12.886765 L 225.09719,12.436649 L 224.69058,12.015488 L 224.28382,11.623436 L 223.86281,11.260339 L 223.4271,10.940752 L 222.97683,10.650429 L 222.51216,10.388906 L 222.04748,10.142093 L 221.56826,9.9387902 L 221.08903,9.7500422 L 220.60981,9.5902482 L 220.13058,9.4595642 L 219.65135,9.3434352 L 219.17197,9.256261 L 218.69275,9.1836416 L 218.21352,9.1255771 L 217.74885,9.0819126 L 217.28418,9.0675126 L 216.83391,9.0529578 L 215.87546,9.0819126 L 214.97507,9.1690868 L 214.11835,9.2997708 L 213.31953,9.4741188 L 212.56439,9.6919768 L 211.8529,9.9533448 L 211.19933,10.258222 L 210.57486,10.592364 L 210.00846,10.955306 L 209.48573,11.347512 L 208.99195,11.768518 L 208.54183,12.218789 L 208.13507,12.68346 L 207.75757,13.162686 L 207.40903,13.656467 L 207.104,14.164802 L 206.82808,14.687537 L 206.58126,15.210427 L 206.34885,15.733162 L 206.1601,16.255897 L 205.98591,16.778787 L 205.84067,17.301522 L 205.70998,17.809857 L 205.60826,18.303638 L 205.52108,18.782864 L 205.44846,19.247535 L 205.3904,19.697806 L 205.34689,20.104412 L 205.31778,20.511018 L 205.30338,20.874115 L 205.28882,21.193547 L 205.28882,21.498424 L 205.30338,22.427921 L 205.34689,23.313753 L 205.41951,24.17063 L 205.52108,24.983843 L 205.65177,25.753546 L 205.81156,26.49414 L 206.00031,27.205779 L 206.20361,27.873753 L 206.45058,28.498218 L 206.69739,29.093573 L 206.98787,29.659973 L 207.2929,30.197263 L 207.62689,30.705598 L 207.97543,31.170269 L 208.35293,31.605985 L 208.74513,32.012591 L 209.15174,32.390243 L 209.5873,32.738785 L 210.03757,33.072772 L 210.50224,33.363095 L 210.99602,33.624618 L 211.50436,33.871431 L 212.01254,34.074734 L 212.54983,34.263482 L 213.10167,34.43783 L 213.66807,34.568514 L 214.23447,34.684643 L 214.82983,34.786372 L 215.42534,34.858991 L 216.03525,34.902501 L 216.65971,34.931611 L 217.29873,34.946165 L 217.67623,34.946165 L 218.06828,34.917056 L 218.46049,34.887946 L 218.86709,34.858991 L 219.25915,34.800927 L 219.65135,34.728307 L 220.05796,34.641133 L 220.45001,34.553959 L 220.84206,34.43783 L 221.23427,34.321701 L 221.62632,34.176462 L 222.01837,34.016668 L 222.39602,33.842474 L 222.77352,33.668126 L 223.15117,33.464823 L 223.51427,33.23241 L 223.86281,33.000152 L 224.2112,32.738784 L 224.55974,32.462861 L 224.89388,32.172384 L 225.21331,31.867352 L 225.51835,31.533365 L 225.82322,31.184823 L 226.1137,30.807326 L 226.38962,30.41512 L 226.65099,30.008514 L 226.89796,29.572798 L 227.13022,29.122682 L 227.34808,28.643456 L 227.53682,28.149675 L 227.72573,27.62694 L 227.88537,27.089495 L 221.36496,27.089495 L 221.365,27.0895 z M 211.80928,19.55257 L 211.85294,19.247538 L 211.89645,18.957061 L 211.93996,18.681138 L 212.01258,18.405215 L 212.07065,18.129292 L 212.14327,17.867924 L 212.23044,17.621111 L 212.31762,17.374143 L 212.40479,17.141885 L 212.52092,16.924027 L 212.62249,16.706169 L 212.73878,16.488311 L 212.86946,16.299563 L 213.00014,16.09626 L 213.14538,15.921912 L 213.29062,15.747718 L 213.45026,15.587924 L 213.61006,15.442685 L 213.7844,15.297446 L 213.97315,15.166762 L 214.1619,15.036078 L 214.35065,14.919949 L 214.55395,14.81822 L 214.77181,14.731201 L 214.98967,14.644026 L 215.20752,14.571407 L 215.45434,14.513342 L 215.68675,14.469678 L 215.94812,14.426168 L 216.20949,14.397059 L 216.47101,14.382659 L 216.74693,14.382659 L 216.93568,14.382659 L 217.13898,14.397059 L 217.32773,14.411613 L 217.53103,14.440723 L 217.71994,14.469678 L 217.92324,14.513342 L 218.12654,14.571407 L 218.31529,14.629471 L 218.51859,14.702091 L 218.70734,14.77471 L 218.91065,14.861884 L 219.09955,14.963458 L 219.2883,15.079587 L 219.46249,15.195871 L 219.65139,15.326555 L 219.82559,15.471794 L 219.99978,15.631433 L 220.15958,15.791227 L 220.31937,15.979975 L 220.46461,16.168878 L 220.60985,16.372181 L 220.75509,16.590039 L 220.88577,16.822297 L 221.01645,17.069265 L 221.11803,17.330633 L 221.23431,17.606556 L 221.32133,17.882479 L 221.40851,18.187356 L 221.48113,18.506943 L 221.55375,18.84093 L 221.59725,19.189472 L 221.64092,19.552569 L 211.80928,19.552569 L 211.80928,19.55257 z "
   style="fill:black" />

   <polygon
   id="_174689984"
   points="236.178,1.10926 229.846,1.10926 229.846,34.3071 236.178,34.3071 236.178,1.10926 "
   style="fill:black" />

   <path
   id="_174689000"
   d="M 24.1242,43.979 L 22.65741,50.89146 L 24.705,50.89146 L 25.068097,50.87706 L 25.387529,50.87706 L 25.678006,50.84795 L 25.939374,50.818841 L 26.142677,50.789886 L 26.360535,50.746376 L 26.563838,50.673757 L 26.767141,50.601137 L 26.970444,50.499408 L 27.173902,50.383279 L 27.36265,50.266995 L 27.565953,50.121911 L 27.711192,50.005627 L 27.856431,49.874943 L 27.987115,49.744259 L 28.117799,49.59902 L 28.248483,49.453781 L 28.364612,49.294142 L 28.466341,49.134348 L 28.567915,48.974554 L 28.669644,48.80036 L 28.756818,48.611457 L 28.843838,48.437263 L 28.916457,48.23396 L 28.989076,48.045212 L 29.061696,47.841909 L 29.11976,47.624051 L 29.163425,47.420748 L 29.206934,47.17378 L 29.236044,46.941522 L 29.264999,46.709109 L 29.264999,46.491251 L 29.264999,46.273393 L 29.236044,46.07009 L 29.206934,45.866787 L 29.163425,45.678039 L 29.11976,45.489291 L 29.047141,45.314943 L 28.974521,45.140749 L 28.872947,44.99551 L 28.771218,44.850271 L 28.669644,44.705032 L 28.53896,44.588903 L 28.408276,44.472619 L 28.204973,44.341935 L 28.00167,44.225806 L 27.783812,44.153187 L 27.522289,44.080568 L 27.217412,44.037058 L 26.86887,43.993393 L 26.462264,43.978993 L 25.997593,43.978993 L 24.124203,43.978993 L 24.1242,43.979 z M 25.28595,45.21337 L 25.779731,45.21337 L 26.026544,45.22777 L 26.229847,45.22777 L 26.43315,45.25688 L 26.592944,45.271434 L 26.752738,45.314944 L 26.883422,45.344054 L 27.014106,45.402118 L 27.130235,45.460183 L 27.217409,45.518247 L 27.304583,45.605422 L 27.391603,45.678041 L 27.464222,45.779615 L 27.522287,45.881344 L 27.580506,45.983073 L 27.638571,46.099202 L 27.667525,46.215331 L 27.696635,46.346015 L 27.725745,46.491254 L 27.740145,46.621938 L 27.740145,46.781732 L 27.740145,46.926971 L 27.725745,47.086765 L 27.696635,47.260959 L 27.667525,47.420753 L 27.594906,47.711076 L 27.507887,47.972599 L 27.406158,48.233967 L 27.275474,48.48078 L 27.130235,48.698638 L 26.984996,48.887386 L 26.810802,49.061734 L 26.636454,49.221528 L 26.476815,49.323102 L 26.317021,49.410276 L 26.142673,49.482896 L 25.93937,49.54096 L 25.736067,49.58447 L 25.503809,49.628134 L 25.242441,49.642689 L 24.951964,49.642689 L 24.342054,49.642689 L 25.285951,45.213369 L 25.28595,45.21337 z "
   style="fill:white" />

   <path
   id="_130381072"
   d="M 31.6467,46.3315 L 30.29604,46.3315 L 29.337588,50.8915 L 30.688248,50.8915 L 31.6467,46.3315 z M 31.516016,43.80469 L 31.428842,43.819245 L 31.356222,43.819245 L 31.269048,43.8482 L 31.196429,43.877309 L 31.03679,43.949929 L 30.891551,44.051658 L 30.775267,44.167787 L 30.673693,44.313026 L 30.630028,44.400045 L 30.586519,44.472665 L 30.557409,44.559839 L 30.543009,44.647013 L 30.528454,44.719632 L 30.528454,44.806807 L 30.528454,44.879426 L 30.543009,44.93749 L 30.557409,45.01011 L 30.586519,45.068174 L 30.615628,45.126239 L 30.659138,45.184303 L 30.702648,45.242368 L 30.760867,45.286032 L 30.818932,45.314987 L 30.876996,45.358652 L 30.949616,45.373052 L 31.022235,45.402161 L 31.094854,45.416716 L 31.167474,45.416716 L 31.254493,45.416716 L 31.341667,45.402161 L 31.414287,45.373052 L 31.501461,45.358652 L 31.6467,45.286032 L 31.791939,45.184303 L 31.908068,45.068174 L 32.009642,44.922935 L 32.053306,44.850316 L 32.096816,44.777696 L 32.125926,44.705077 L 32.140481,44.617903 L 32.154881,44.530883 L 32.154881,44.458264 L 32.154881,44.37109 L 32.140481,44.29847 L 32.125926,44.225851 L 32.096816,44.167786 L 32.067861,44.109722 L 32.024197,44.051657 L 31.980687,43.993438 L 31.937023,43.949928 L 31.878958,43.906419 L 31.820894,43.877309 L 31.748274,43.848199 L 31.675655,43.819244 L 31.603035,43.819244 L 31.516016,43.80469 L 31.516016,43.80469 z "
   style="fill:white" />

   <path
   id="_129949872"
   d="M 36.6423,48.9019 L 36.700365,48.597023 L 36.729474,48.306546 L 36.729474,48.030623 L 36.714919,47.769255 L 36.685965,47.536842 L 36.627745,47.318984 L 36.555281,47.115681 L 36.453552,46.926933 L 36.337423,46.767139 L 36.192184,46.6219 L 36.03239,46.505771 L 35.858196,46.404042 L 35.654893,46.331423 L 35.437035,46.273358 L 35.204622,46.229848 L 34.943254,46.229848 L 34.696286,46.229848 L 34.449473,46.273358 L 34.20266,46.317023 L 33.970247,46.389642 L 33.752389,46.491216 L 33.549086,46.592945 L 33.345783,46.723629 L 33.157035,46.868868 L 32.982687,47.028507 L 32.808493,47.202855 L 32.663254,47.406158 L 32.53257,47.609461 L 32.416441,47.827319 L 32.314712,48.059577 L 32.227538,48.306545 L 32.169473,48.553358 L 32.125963,48.814726 L 32.096854,49.076249 L 32.096854,49.323062 L 32.125963,49.54092 L 32.184028,49.758778 L 32.256647,49.962081 L 32.343821,50.150829 L 32.45995,50.310623 L 32.590634,50.470417 L 32.750428,50.601101 L 32.924622,50.71723 L 33.11337,50.818804 L 33.331228,50.891423 L 33.549086,50.949643 L 33.796054,50.978598 L 34.057422,50.993152 L 34.231616,50.993152 L 34.39141,50.978598 L 34.551204,50.949643 L 34.710843,50.920533 L 34.856082,50.877023 L 35.001321,50.833359 L 35.14656,50.76074 L 35.291799,50.702675 L 35.437038,50.615501 L 35.582277,50.528481 L 35.712961,50.441307 L 35.843645,50.325178 L 35.974329,50.208894 L 36.105013,50.092765 L 36.235697,49.947526 L 36.366381,49.802287 L 35.553168,49.206932 L 35.378974,49.381126 L 35.21918,49.526365 L 35.059386,49.642649 L 34.914147,49.744223 L 34.754508,49.816843 L 34.594714,49.860352 L 34.43492,49.889462 L 34.260726,49.904017 L 34.158997,49.904017 L 34.057423,49.889462 L 33.970249,49.860352 L 33.883075,49.831398 L 33.796056,49.802288 L 33.723436,49.744223 L 33.665217,49.700714 L 33.607152,49.642649 L 33.549088,49.57003 L 33.505578,49.49741 L 33.461914,49.410236 L 33.432959,49.323062 L 33.403849,49.221488 L 33.389294,49.119759 L 33.374894,49.018185 L 33.374894,48.901901 L 36.642304,48.901901 L 36.6423,48.9019 z M 33.5782,48.001513 L 33.679774,47.827319 L 33.796058,47.667525 L 33.926742,47.536841 L 34.057426,47.435112 L 34.202665,47.362647 L 34.347904,47.304428 L 34.522098,47.275473 L 34.696292,47.260918 L 34.87064,47.275473 L 35.001324,47.304428 L 35.073943,47.333538 L 35.132008,47.362647 L 35.175672,47.406157 L 35.233737,47.449667 L 35.320756,47.551396 L 35.378976,47.68208 L 35.422485,47.827319 L 35.43704,48.001513 L 33.5782,48.001513 L 33.5782,48.001513 z "
   style="fill:white" />

   <polygon
   id="_21419176"
   points="50.0028,43.979 48.4925,43.979 46.3432,48.3211 45.7768,43.979 44.8038,43.979 42.4512,48.3211 42.1172,43.979 40.6941,43.979 41.2168,50.8915 42.4221,50.8915 44.6877,46.7091 45.2395,50.8915 46.5029,50.8915 50.0028,43.979 "
   style="fill:white" />

   <path
   id="_130498328"
   d="M 53.372,48.9019 L 53.430065,48.597023 L 53.459174,48.306546 L 53.473574,48.030623 L 53.459174,47.769255 L 53.41551,47.536842 L 53.357445,47.318984 L 53.284826,47.115681 L 53.183252,46.926933 L 53.066968,46.767139 L 52.921729,46.6219 L 52.76209,46.505771 L 52.587742,46.404042 L 52.384439,46.331423 L 52.166581,46.273358 L 51.934323,46.229848 L 51.6728,46.229848 L 51.425987,46.229848 L 51.179174,46.273358 L 50.932206,46.317023 L 50.714348,46.389642 L 50.48209,46.491216 L 50.278787,46.592945 L 50.075484,46.723629 L 49.886581,46.868868 L 49.712387,47.028507 L 49.552593,47.202855 L 49.392799,47.406158 L 49.262115,47.609461 L 49.145986,47.827319 L 49.044412,48.059577 L 48.957238,48.306545 L 48.899173,48.553358 L 48.855509,48.814726 L 48.826554,49.076249 L 48.840954,49.323062 L 48.855509,49.54092 L 48.913573,49.758778 L 48.986193,49.962081 L 49.073367,50.150829 L 49.189496,50.310623 L 49.320335,50.470417 L 49.479974,50.601101 L 49.654322,50.71723 L 49.84307,50.818804 L 50.060928,50.891423 L 50.293186,50.949643 L 50.525599,50.978598 L 50.786967,50.993152 L 50.961315,50.993152 L 51.120954,50.978598 L 51.280748,50.949643 L 51.440542,50.920533 L 51.585781,50.877023 L 51.73102,50.833359 L 51.890659,50.76074 L 52.021343,50.702675 L 52.166582,50.615501 L 52.311821,50.528481 L 52.442505,50.441307 L 52.573189,50.325178 L 52.703873,50.208894 L 52.834712,50.092765 L 52.965396,49.947526 L 53.09608,49.802287 L 52.282867,49.206932 L 52.108519,49.381126 L 51.948725,49.526365 L 51.789086,49.642649 L 51.643847,49.744223 L 51.484053,49.816843 L 51.324259,49.860352 L 51.16462,49.889462 L 50.990272,49.904017 L 50.888698,49.904017 L 50.786969,49.889462 L 50.699949,49.860352 L 50.612775,49.831398 L 50.525601,49.802288 L 50.452982,49.744223 L 50.394917,49.700714 L 50.336853,49.642649 L 50.278788,49.57003 L 50.235124,49.49741 L 50.191614,49.410236 L 50.162504,49.323062 L 50.133549,49.221488 L 50.118995,49.119759 L 50.118995,49.018185 L 50.10444,48.901901 L 53.372,48.901901 L 53.372,48.9019 z M 50.30774,48.001513 L 50.409469,47.827319 L 50.525598,47.667525 L 50.656282,47.536841 L 50.786966,47.435112 L 50.932205,47.362647 L 51.077444,47.304428 L 51.251792,47.275473 L 51.44054,47.260918 L 51.600179,47.275473 L 51.731018,47.304428 L 51.803637,47.333538 L 51.861702,47.362647 L 51.919766,47.406157 L 51.963276,47.449667 L 52.006941,47.493331 L 52.05045,47.551396 L 52.07956,47.60946 L 52.108515,47.68208 L 52.152025,47.827319 L 52.166579,48.001513 L 50.307739,48.001513 L 50.30774,48.001513 z "
   style="fill:white" />

   <polygon
   id="_129791152"
   points="56.7557,43.4415 55.405,43.4415 53.8366,50.8915 55.1871,50.8915 56.7557,43.4415 "
   style="fill:white" />

   <polygon
   id="_130428744"
   points="59.1518,44.9518 57.8157,44.9518 57.5254,46.3315 57.0751,46.3315 56.8427,47.4207 57.293,47.4207 56.5524,50.8915 57.9029,50.8915 58.6435,47.4207 59.4423,47.4207 59.6745,46.3315 58.8759,46.3315 59.1518,44.9518 "
   style="fill:white" />

   <path
   id="_131079688"
   d="M 68.4314,43.4415 L 67.0809,43.4415 L 66.369261,46.81079 L 66.238577,46.665551 L 66.093338,46.549267 L 65.948099,46.447693 L 65.78846,46.360519 L 65.628666,46.302454 L 65.439918,46.258945 L 65.25117,46.229835 L 65.047867,46.229835 L 64.815454,46.229835 L 64.597596,46.273345 L 64.365183,46.331409 L 64.14748,46.404029 L 63.929622,46.505758 L 63.726319,46.621887 L 63.523016,46.767125 L 63.334113,46.912364 L 63.159919,47.086712 L 63.000125,47.260906 L 62.840486,47.464209 L 62.709647,47.667512 L 62.593518,47.88537 L 62.491944,48.117783 L 62.40477,48.350041 L 62.346705,48.597009 L 62.303041,48.843823 L 62.288641,49.090636 L 62.288641,49.323049 L 62.317596,49.540907 L 62.361105,49.758765 L 62.433725,49.962068 L 62.520899,50.136262 L 62.622628,50.31061 L 62.753312,50.455849 L 62.898551,50.601087 L 63.05819,50.717216 L 63.247093,50.804391 L 63.435841,50.89141 L 63.639144,50.94963 L 63.871557,50.978584 L 64.103815,50.993139 L 64.307118,50.978584 L 64.496021,50.96403 L 64.670215,50.92052 L 64.858963,50.87701 L 65.033311,50.804391 L 65.222059,50.702662 L 65.410807,50.601088 L 65.59971,50.455849 L 65.512536,50.87701 L 66.863036,50.87701 L 68.431396,43.4415 L 68.4314,43.4415 z M 65.16399,47.4207 L 65.294674,47.4207 L 65.410803,47.4351 L 65.512532,47.46421 L 65.614106,47.507719 L 65.715835,47.551384 L 65.803009,47.609448 L 65.875629,47.682068 L 65.948093,47.754687 L 66.006313,47.841861 L 66.049822,47.928881 L 66.093332,48.03061 L 66.122442,48.132184 L 66.136996,48.248468 L 66.136996,48.350042 L 66.136996,48.480726 L 66.107887,48.59701 L 66.078932,48.727694 L 66.035267,48.843823 L 65.977203,48.959952 L 65.919138,49.076236 L 65.846519,49.17781 L 65.7739,49.279539 L 65.686725,49.366558 L 65.585151,49.453732 L 65.483422,49.526352 L 65.381848,49.598971 L 65.265564,49.657036 L 65.16399,49.7007 L 65.033306,49.74421 L 64.917022,49.77332 L 64.786338,49.78772 L 64.670209,49.802274 L 64.539525,49.78772 L 64.423396,49.77332 L 64.321667,49.74421 L 64.220093,49.7151 L 64.132919,49.657036 L 64.045745,49.598971 L 63.973126,49.526352 L 63.900506,49.453732 L 63.842442,49.366558 L 63.798932,49.279539 L 63.769822,49.17781 L 63.740713,49.076236 L 63.726313,48.959952 L 63.726313,48.843823 L 63.740713,48.713139 L 63.755267,48.582455 L 63.784377,48.466326 L 63.827887,48.350042 L 63.885951,48.233913 L 63.944171,48.117784 L 64.016635,48.016055 L 64.089255,47.928881 L 64.176429,47.841861 L 64.263603,47.754687 L 64.365177,47.682068 L 64.466906,47.609448 L 64.583035,47.551384 L 64.684764,47.507719 L 64.800893,47.464209 L 64.917022,47.4351 L 65.047861,47.4207 L 65.16399,47.4207 L 65.16399,47.4207 z "
   style="fill:white" />

   <path
   id="_130881688"
   d="M 72.5122,48.9019 L 72.555865,48.597023 L 72.584819,48.306546 L 72.599374,48.030623 L 72.584819,47.769255 L 72.54131,47.536842 L 72.483245,47.318984 L 72.410626,47.115681 L 72.308897,46.926933 L 72.192768,46.767139 L 72.047529,46.6219 L 71.887735,46.505771 L 71.713541,46.404042 L 71.510238,46.331423 L 71.29238,46.273358 L 71.059967,46.229848 L 70.798599,46.229848 L 70.551786,46.229848 L 70.304818,46.273358 L 70.07256,46.317023 L 69.840147,46.389642 L 69.622289,46.491216 L 69.404431,46.592945 L 69.201128,46.723629 L 69.01238,46.868868 L 68.838186,47.028507 L 68.678392,47.202855 L 68.533153,47.406158 L 68.387914,47.609461 L 68.271785,47.827319 L 68.170056,48.059577 L 68.097436,48.306545 L 68.024817,48.553358 L 67.981307,48.814726 L 67.966752,49.076249 L 67.966752,49.323062 L 67.995862,49.54092 L 68.039372,49.758778 L 68.111991,49.962081 L 68.21372,50.150829 L 68.315294,50.310623 L 68.460533,50.470417 L 68.605772,50.601101 L 68.779966,50.71723 L 68.983269,50.818804 L 69.186727,50.891423 L 69.418985,50.949643 L 69.665953,50.978598 L 69.927321,50.993152 L 70.08696,50.993152 L 70.246754,50.978598 L 70.406548,50.949643 L 70.566342,50.920533 L 70.711426,50.877023 L 70.87122,50.833359 L 71.016459,50.76074 L 71.161698,50.702675 L 71.292382,50.615501 L 71.437621,50.528481 L 71.568305,50.441307 L 71.713544,50.325178 L 71.844228,50.208894 L 71.974912,50.092765 L 72.091041,49.947526 L 72.22188,49.802287 L 71.408512,49.206932 L 71.248873,49.381126 L 71.089079,49.526365 L 70.929285,49.642649 L 70.769646,49.744223 L 70.609852,49.816843 L 70.464613,49.860352 L 70.290419,49.889462 L 70.116071,49.904017 L 70.014497,49.904017 L 69.912768,49.889462 L 69.825594,49.860352 L 69.738575,49.831398 L 69.665955,49.802288 L 69.593336,49.744223 L 69.520716,49.700714 L 69.462652,49.642649 L 69.404433,49.57003 L 69.360923,49.49741 L 69.331813,49.410236 L 69.288303,49.323062 L 69.273749,49.221488 L 69.259194,49.119759 L 69.244794,49.018185 L 69.244794,48.901901 L 72.512204,48.901901 L 72.5122,48.9019 z M 69.43354,48.001513 L 69.549669,47.827319 L 69.665953,47.667525 L 69.782082,47.536841 L 69.912766,47.435112 L 70.058005,47.362647 L 70.217799,47.304428 L 70.377438,47.275473 L 70.566341,47.260918 L 70.72598,47.275473 L 70.871219,47.304428 L 70.929284,47.333538 L 70.987348,47.362647 L 71.045567,47.406157 L 71.089077,47.449667 L 71.176251,47.551396 L 71.234316,47.68208 L 71.277826,47.827319 L 71.306935,48.001513 L 69.433545,48.001513 L 69.43354,48.001513 z "
   style="fill:white" />

   <polygon
   id="_22939248"
   points="74.7341,50.8915 75.1553,48.9019 75.2134,48.6406 75.3005,48.4082 75.3877,48.2194 75.5038,48.0452 75.591,47.9435 75.6926,47.8419 75.8089,47.7693 75.925,47.6967 76.0411,47.6386 76.1573,47.6095 76.2735,47.5804 76.4042,47.566 76.5204,47.5804 76.6221,47.5949 76.7528,47.653 76.898,47.7256 77.2029,46.2299 76.9561,46.259 76.7237,46.3171 76.5058,46.3897 76.3025,46.4767 76.1138,46.5784 75.925,46.7091 75.7363,46.8543 75.5474,47.0141 75.6926,46.3315 74.3421,46.3315 73.3836,50.8915 74.7341,50.8915 "
   style="fill:white" />

   <path
   id="_130358232"
   d="M 80.8481,43.979 L 79.38131,50.89146 L 81.71937,50.89146 L 81.922673,50.89146 L 82.125976,50.87706 L 82.30017,50.862505 L 82.474518,50.833396 L 82.634312,50.804441 L 82.779551,50.775331 L 82.924635,50.731821 L 83.055474,50.673757 L 83.186158,50.615537 L 83.316842,50.557473 L 83.447526,50.470453 L 83.563655,50.397834 L 83.679784,50.296105 L 83.781513,50.208931 L 83.883242,50.107357 L 83.970261,49.991073 L 84.057436,49.874944 L 84.14461,49.74426 L 84.217229,49.628131 L 84.289849,49.482892 L 84.347913,49.352208 L 84.391423,49.206969 L 84.449487,49.047175 L 84.478597,48.901936 L 84.507552,48.742297 L 84.522107,48.582503 L 84.536661,48.437264 L 84.536661,48.30658 L 84.522107,48.175896 L 84.493152,48.059612 L 84.449487,47.943483 L 84.405978,47.841909 L 84.333358,47.74018 L 84.260739,47.653006 L 84.173565,47.565986 L 84.086545,47.478812 L 83.970261,47.406193 L 83.839577,47.333573 L 83.708893,47.260954 L 83.563654,47.202889 L 83.694338,47.159225 L 83.825022,47.10116 L 83.941306,47.028541 L 84.04288,46.970477 L 84.159164,46.897857 L 84.246184,46.810838 L 84.333358,46.738218 L 84.420532,46.651044 L 84.493151,46.56387 L 84.565771,46.462296 L 84.623835,46.360567 L 84.6819,46.244438 L 84.72541,46.142709 L 84.769074,46.012025 L 84.812584,45.895896 L 84.841693,45.750657 L 84.885203,45.518244 L 84.885203,45.300386 L 84.870648,45.097083 L 84.827139,44.89378 L 84.798029,44.806761 L 84.754519,44.719586 L 84.71101,44.632412 L 84.65279,44.559793 L 84.594726,44.487173 L 84.522106,44.414554 L 84.464042,44.356489 L 84.376868,44.298425 L 84.246184,44.211251 L 84.07199,44.138631 L 83.883242,44.080567 L 83.650829,44.037057 L 83.360352,44.007947 L 83.01181,43.993393 L 82.590649,43.978993 L 82.082468,43.978993 L 80.848098,43.978993 L 80.8481,43.979 z M 82.00985,45.15531 L 82.227708,45.15531 L 82.532585,45.15531 L 82.764998,45.184265 L 82.939192,45.213375 L 83.069876,45.242329 L 83.15705,45.300394 L 83.215115,45.358613 L 83.258779,45.431233 L 83.302289,45.518252 L 83.331399,45.605426 L 83.331399,45.707155 L 83.331399,45.823284 L 83.316844,45.939413 L 83.287734,46.055542 L 83.244224,46.157271 L 83.20056,46.244445 L 83.15705,46.331465 L 83.098986,46.418639 L 83.026366,46.491258 L 82.953747,46.549323 L 82.881128,46.607387 L 82.823063,46.651052 L 82.735889,46.680007 L 82.663269,46.709116 L 82.561695,46.723671 L 82.343837,46.752626 L 82.05336,46.767181 L 81.675863,46.767181 L 82.00985,45.155311 L 82.00985,45.15531 z M 81.44345,47.87087 L 81.806547,47.87087 L 82.111424,47.885425 L 82.358392,47.89998 L 82.561695,47.943489 L 82.721334,47.986999 L 82.808508,48.045218 L 82.881128,48.117838 L 82.939192,48.204857 L 82.997257,48.292031 L 83.026366,48.40816 L 83.040921,48.524444 L 83.026366,48.655128 L 83.011812,48.785812 L 82.982857,48.916496 L 82.939192,49.032625 L 82.895683,49.134354 L 82.837618,49.235928 L 82.779554,49.323103 L 82.706934,49.395722 L 82.634315,49.468341 L 82.547141,49.526406 L 82.459966,49.58447 L 82.372792,49.61358 L 82.271218,49.65709 L 82.155089,49.671645 L 81.864612,49.700754 L 81.48696,49.715154 L 81.051399,49.715154 L 81.443451,47.870874 L 81.44345,47.87087 z "
   style="fill:white" />

   <path
   id="_130842200"
   d="M 90.7813,46.3315 L 89.43064,46.3315 L 88.951414,48.58255 L 88.893349,48.814808 L 88.84984,49.018266 L 88.79162,49.19246 L 88.719001,49.323144 L 88.660937,49.424873 L 88.573917,49.526447 L 88.472188,49.599066 L 88.370459,49.671686 L 88.25433,49.72975 L 88.123646,49.75886 L 87.992962,49.787815 L 87.847723,49.80237 L 87.746149,49.787815 L 87.64442,49.773415 L 87.542691,49.744305 L 87.455672,49.686241 L 87.383052,49.642731 L 87.324988,49.570111 L 87.266768,49.497492 L 87.237814,49.410318 L 87.208704,49.337698 L 87.194304,49.265079 L 87.194304,49.19246 L 87.194304,49.090731 L 87.223259,48.887428 L 87.266768,48.611505 L 87.746149,46.331505 L 86.395489,46.331505 L 85.901708,48.727785 L 85.843644,48.974598 L 85.814689,49.192456 L 85.785579,49.395759 L 85.785579,49.570107 L 85.785579,49.729746 L 85.814689,49.86043 L 85.843644,50.005669 L 85.901708,50.136353 L 85.945373,50.223527 L 86.003437,50.325256 L 86.076057,50.412275 L 86.163076,50.484895 L 86.235696,50.557514 L 86.337425,50.630133 L 86.438999,50.702753 L 86.540728,50.760817 L 86.656857,50.818882 L 86.787541,50.862546 L 86.903825,50.891501 L 87.049064,50.935166 L 87.179748,50.964121 L 87.324987,50.978675 L 87.470226,50.99323 L 87.629865,50.99323 L 87.934897,50.978675 L 88.225374,50.935166 L 88.501297,50.862546 L 88.77722,50.775372 L 89.024033,50.659243 L 89.256446,50.528559 L 89.372575,50.45594 L 89.459749,50.368765 L 89.561323,50.296146 L 89.633942,50.208972 L 89.750071,50.063733 L 89.8518,49.918649 L 89.938974,49.77341 L 90.011594,49.599062 L 90.084213,49.424868 L 90.142278,49.221565 L 90.214897,49.003707 L 90.272962,48.756739 L 90.781297,46.331499 L 90.7813,46.3315 z M 88.00752,44.06605 L 87.847726,44.080605 L 87.702487,44.124114 L 87.557248,44.196734 L 87.426564,44.283908 L 87.310435,44.400037 L 87.223261,44.516321 L 87.150641,44.66156 L 87.107132,44.806799 L 87.092577,44.893818 L 87.092577,44.966438 L 87.092577,45.039057 L 87.107132,45.111677 L 87.121686,45.169741 L 87.136086,45.227806 L 87.179751,45.286025 L 87.208706,45.34409 L 87.25237,45.387599 L 87.29588,45.431264 L 87.353944,45.474773 L 87.412009,45.503728 L 87.470228,45.532838 L 87.542693,45.547393 L 87.615312,45.561948 L 87.687932,45.561948 L 87.833171,45.547393 L 87.992965,45.503728 L 88.123649,45.431264 L 88.254333,45.34409 L 88.370462,45.227806 L 88.472191,45.111677 L 88.54481,44.966438 L 88.58832,44.806799 L 88.602875,44.734179 L 88.602875,44.66156 L 88.602875,44.58894 L 88.58832,44.516321 L 88.57392,44.458256 L 88.54481,44.400037 L 88.5157,44.341973 L 88.486746,44.283908 L 88.443081,44.240398 L 88.385017,44.196734 L 88.341507,44.153224 L 88.283442,44.124114 L 88.210823,44.09516 L 88.152758,44.080605 L 88.080139,44.06605 L 88.00752,44.06605 L 88.00752,44.06605 z M 90.12773,44.06605 L 89.982491,44.080605 L 89.837252,44.124114 L 89.692013,44.196734 L 89.561329,44.283908 L 89.4452,44.400037 L 89.358026,44.516321 L 89.285406,44.66156 L 89.227342,44.806799 L 89.227342,44.893818 L 89.212787,44.966438 L 89.227342,45.039057 L 89.227342,45.111677 L 89.241897,45.169741 L 89.270851,45.227806 L 89.299961,45.286025 L 89.343471,45.34409 L 89.387135,45.387599 L 89.430645,45.431264 L 89.48871,45.474773 L 89.546774,45.503728 L 89.604993,45.532838 L 89.677613,45.547393 L 89.750077,45.561948 L 89.822697,45.561948 L 89.967936,45.547393 L 90.113175,45.503728 L 90.258414,45.431264 L 90.389098,45.34409 L 90.505382,45.227806 L 90.592401,45.111677 L 90.665021,44.966438 L 90.723085,44.806799 L 90.723085,44.734179 L 90.73764,44.66156 L 90.723085,44.58894 L 90.723085,44.516321 L 90.708685,44.458256 L 90.679575,44.400037 L 90.650466,44.341973 L 90.606956,44.283908 L 90.563446,44.240398 L 90.519782,44.196734 L 90.461717,44.153224 L 90.403653,44.124114 L 90.345588,44.09516 L 90.272969,44.080605 L 90.214904,44.06605 L 90.12773,44.06605 L 90.12773,44.06605 z "
   style="fill:white" />

   <polygon
   id="_129953016"
   points="95.1089,46.4767 94.8039,46.3606 94.5279,46.2734 94.3973,46.259 94.2666,46.2299 94.1359,46.2299 93.9907,46.2299 93.7438,46.2299 93.5114,46.2734 93.279,46.3315 93.0468,46.4041 92.8143,46.5058 92.611,46.6219 92.3932,46.7672 92.2044,46.927 92.0157,47.0868 91.8559,47.2755 91.6961,47.4788 91.5509,47.6821 91.4347,47.9 91.3332,48.1322 91.246,48.3792 91.1734,48.626 91.1297,48.8874 91.1153,49.1198 91.1297,49.3522 91.1443,49.5845 91.2023,49.7878 91.2749,49.9767 91.3621,50.1654 91.4782,50.3252 91.6091,50.4705 91.7687,50.6011 91.9285,50.7173 92.1173,50.8188 92.3206,50.8915 92.5384,50.9497 92.7708,50.9786 93.0322,50.9932 93.1774,50.9932 93.3227,50.9786 93.4534,50.9641 93.5841,50.9351 93.8745,50.8625 94.194,50.7464 94.4844,49.4103 94.3101,49.5118 94.1649,49.599 94.0198,49.6716 93.9035,49.7151 93.7728,49.7588 93.6567,49.7878 93.5405,49.7878 93.4097,49.8023 93.3081,49.7878 93.2064,49.7734 93.1048,49.7443 93.0177,49.7007 92.9305,49.6571 92.8579,49.599 92.7852,49.5264 92.7272,49.4538 92.6837,49.3666 92.6402,49.265 92.5965,49.1779 92.5819,49.0617 92.5675,48.96 92.5675,48.8439 92.5675,48.7277 92.5965,48.6115 92.6256,48.4808 92.6691,48.3646 92.7128,48.2485 92.7708,48.1322 92.8435,48.0307 92.9161,47.9289 92.9887,47.8419 93.0757,47.7547 93.1629,47.6821 93.2646,47.6095 93.3662,47.5514 93.4679,47.5078 93.5695,47.4643 93.6856,47.4351 93.7874,47.4207 93.9035,47.4207 94.0198,47.4207 94.1359,47.4351 94.2375,47.4643 94.3538,47.4934 94.4553,47.5514 94.5716,47.6095 94.7023,47.6821 94.833,47.7837 95.1089,46.4767 "
   style="fill:white" />

   <polygon
   id="_130428696"
   points="98.2167,43.4415 96.8806,43.4415 95.2977,50.8915 96.6482,50.8915 97.1419,48.5679 97.171,48.4373 97.2146,48.3066 97.2582,48.1905 97.3017,48.0887 97.3598,47.987 97.4179,47.8854 97.4905,47.7982 97.5631,47.7256 97.6357,47.653 97.7229,47.5949 97.8101,47.5369 97.8971,47.4934 97.9843,47.4643 98.086,47.4351 98.1876,47.4207 98.2893,47.4207 98.3909,47.4207 98.478,47.4351 98.5507,47.4497 98.6233,47.4788 98.6813,47.5223 98.7394,47.566 98.7831,47.6241 98.8266,47.6821 98.8555,47.7547 98.8701,47.8274 98.8846,47.9145 98.8992,48.0161 98.8846,48.234 98.8411,48.4808 98.3474,50.8915 99.6833,50.8915 100.235,48.292 100.322,47.8709 100.351,47.5514 100.351,47.4207 100.351,47.2901 100.337,47.1738 100.308,47.0577 100.279,46.9559 100.235,46.8689 100.192,46.7817 100.134,46.7091 100.076,46.6365 100.003,46.5639 99.9303,46.5058 99.8577,46.4477 99.7705,46.3897 99.6833,46.346 99.5817,46.3171 99.4946,46.2879 99.3784,46.259 99.2767,46.2444 99.1606,46.2299 99.0444,46.2299 98.8555,46.2299 98.6668,46.259 98.478,46.3025 98.2893,46.3751 98.1004,46.4623 97.8971,46.5639 97.7083,46.6946 97.505,46.8398 98.2167,43.4415 "
   style="fill:white" />

   <path
   id="_130734048"
   d="M 105.55,48.9019 L 105.59366,48.597023 L 105.62262,48.306546 L 105.63717,48.030623 L 105.62262,47.769255 L 105.59366,47.536842 L 105.5356,47.318984 L 105.44843,47.115681 L 105.3467,46.926933 L 105.23057,46.767139 L 105.09988,46.6219 L 104.94009,46.505771 L 104.75134,46.404042 L 104.54804,46.331423 L 104.33018,46.273358 L 104.09777,46.229848 L 103.85095,46.229848 L 103.58959,46.229848 L 103.34262,46.273358 L 103.11036,46.317023 L 102.87795,46.389642 L 102.66009,46.491216 L 102.44223,46.592945 L 102.23893,46.723629 L 102.05018,46.868868 L 101.87599,47.028507 L 101.71619,47.202855 L 101.57095,47.406158 L 101.44027,47.609461 L 101.30959,47.827319 L 101.20786,48.059577 L 101.13524,48.306545 L 101.06262,48.553358 L 101.01911,48.814726 L 101.00455,49.076249 L 101.00455,49.323062 L 101.03366,49.54092 L 101.07717,49.758778 L 101.14979,49.962081 L 101.25152,50.150829 L 101.36765,50.310623 L 101.49833,50.470417 L 101.65813,50.601101 L 101.83232,50.71723 L 102.02123,50.818804 L 102.22453,50.891423 L 102.45679,50.949643 L 102.70375,50.978598 L 102.96512,50.993152 L 103.12492,50.993152 L 103.28456,50.978598 L 103.44435,50.949643 L 103.60414,50.920533 L 103.76378,50.877023 L 103.90902,50.833359 L 104.05426,50.76074 L 104.1995,50.702675 L 104.34474,50.615501 L 104.47542,50.528481 L 104.62066,50.441307 L 104.75135,50.325178 L 104.88203,50.208894 L 105.01271,50.092765 L 105.129,49.947526 L 105.25968,49.802287 L 104.44631,49.206932 L 104.28667,49.381126 L 104.12688,49.526365 L 103.96709,49.642649 L 103.80745,49.744223 L 103.66221,49.816843 L 103.50241,49.860352 L 103.32822,49.889462 L 103.16843,49.904017 L 103.0523,49.904017 L 102.96512,49.889462 L 102.86339,49.860352 L 102.77637,49.831398 L 102.70376,49.802288 L 102.63114,49.744223 L 102.55852,49.700714 L 102.50045,49.642649 L 102.45679,49.57003 L 102.41328,49.49741 L 102.36977,49.410236 L 102.34066,49.323062 L 102.31155,49.221488 L 102.29715,49.119759 L 102.28259,49.018185 L 102.28259,48.901901 L 105.55,48.901901 L 105.55,48.9019 z M 102.4859,48.001513 L 102.58747,47.827319 L 102.70376,47.667525 L 102.81989,47.536841 L 102.95057,47.435112 L 103.09581,47.362647 L 103.2556,47.304428 L 103.4298,47.275473 L 103.60415,47.260918 L 103.76379,47.275473 L 103.90902,47.304428 L 103.96709,47.333538 L 104.02531,47.362647 L 104.08337,47.406157 L 104.12688,47.449667 L 104.17039,47.493331 L 104.21406,47.551396 L 104.25757,47.60946 L 104.28668,47.68208 L 104.31563,47.827319 L 104.34474,48.001513 L 102.4859,48.001513 L 102.4859,48.001513 z "
   style="fill:white" />

   <polygon
   id="_129853744"
   points="107.366,50.8915 107.787,48.9019 107.845,48.6406 107.917,48.4082 108.019,48.2194 108.135,48.0452 108.223,47.9435 108.324,47.8419 108.44,47.7693 108.542,47.6967 108.658,47.6386 108.789,47.6095 108.905,47.5804 109.021,47.566 109.152,47.5804 109.254,47.5949 109.384,47.653 109.515,47.7256 109.834,46.2299 109.588,46.259 109.355,46.3171 109.137,46.3897 108.934,46.4767 108.731,46.5784 108.556,46.7091 108.368,46.8543 108.179,47.0141 108.324,46.3315 106.974,46.3315 106.015,50.8915 107.366,50.8915 "
   style="fill:white" />

   <path
   id="_131500984"
   d="M 73.7031,9.70637 L 73.7031,13.35158 L 73.615926,13.35158 L 73.456287,13.046548 L 73.281939,12.712561 L 73.064081,12.364019 L 72.817268,12.000922 L 72.686584,11.826728 L 72.541345,11.65238 L 72.396106,11.463632 L 72.221912,11.289284 L 72.047564,11.11509 L 71.87337,10.940742 L 71.684467,10.766548 L 71.481164,10.606754 L 71.263306,10.447115 L 71.045603,10.287321 L 70.798635,10.142082 L 70.551822,9.996843 L 70.290454,9.851604 L 70.028931,9.735475 L 69.738608,9.619346 L 69.433576,9.503062 L 69.128544,9.401488 L 68.809112,9.3143138 L 68.46057,9.2416944 L 68.112028,9.1836299 L 67.748931,9.1255654 L 67.356879,9.0964557 L 66.964827,9.0675009 L 66.558221,9.0529461 L 66.049886,9.0675009 L 65.57066,9.1110106 L 65.076879,9.1690751 L 64.597653,9.2562493 L 64.132982,9.3578233 L 63.653756,9.5030623 L 63.203485,9.6628563 L 62.753369,9.8370503 L 62.317653,10.054908 L 61.881937,10.287321 L 61.460931,10.548689 L 61.05417,10.824612 L 60.662118,11.129644 L 60.284621,11.463631 L 59.906969,11.826728 L 59.558427,12.204225 L 59.22444,12.610831 L 58.905008,13.046547 L 58.599976,13.496663 L 58.309499,13.975889 L 58.048131,14.484224 L 57.801318,15.021514 L 57.568905,15.573359 L 57.365602,16.154314 L 57.176854,16.764224 L 57.01706,17.403243 L 56.871821,18.056662 L 56.755692,18.739191 L 56.668518,19.45083 L 56.595898,20.177024 L 56.552389,20.946572 L 56.537834,21.73083 L 56.552389,22.515088 L 56.595898,23.284791 L 56.653963,24.025385 L 56.755692,24.737024 L 56.871821,25.433953 L 57.002505,26.087527 L 57.162299,26.726546 L 57.351047,27.336456 L 57.55435,27.931811 L 57.786763,28.483656 L 58.033576,29.020946 L 58.294944,29.529281 L 58.585421,30.008507 L 58.890453,30.473178 L 59.209885,30.894339 L 59.558427,31.300945 L 59.906969,31.693151 L 60.284621,32.041693 L 60.676673,32.37568 L 61.083279,32.680557 L 61.50444,32.971034 L 61.940156,33.218002 L 62.390272,33.45026 L 62.854943,33.653563 L 63.319769,33.842466 L 63.798995,34.002105 L 64.307176,34.132789 L 64.800957,34.249073 L 65.323847,34.336093 L 65.846582,34.394312 L 66.369317,34.423267 L 66.921162,34.437822 L 67.269704,34.437822 L 67.603691,34.423267 L 67.923278,34.394312 L 68.24271,34.350648 L 68.547742,34.307138 L 68.838219,34.263473 L 69.114142,34.190854 L 69.37551,34.13279 L 69.636878,34.04577 L 69.883691,33.958596 L 70.116104,33.871422 L 70.348517,33.769848 L 70.566375,33.653564 L 70.769678,33.55199 L 70.972981,33.421306 L 71.161729,33.305022 L 71.350477,33.174338 L 71.524825,33.029099 L 71.699019,32.88386 L 71.858813,32.738776 L 72.16369,32.433744 L 72.439613,32.114312 L 72.686581,31.78017 L 72.933394,31.446183 L 73.151252,31.097641 L 73.34,30.734699 L 73.441729,30.836273 L 73.441729,33.784243 L 73.427174,34.161895 L 73.412619,34.510437 L 73.398064,34.844424 L 73.354555,35.178411 L 73.311045,35.483443 L 73.26738,35.78832 L 73.194761,36.078797 L 73.122142,36.35472 L 73.049677,36.616088 L 72.947948,36.863056 L 72.846219,37.095314 L 72.744645,37.327727 L 72.613961,37.53103 L 72.483277,37.734333 L 72.352593,37.923081 L 72.192799,38.097429 L 72.033005,38.271623 L 71.858811,38.416862 L 71.684463,38.562101 L 71.495715,38.692785 L 71.292412,38.809069 L 71.074554,38.925198 L 70.856696,39.026772 L 70.624438,39.113946 L 70.392025,39.186565 L 70.130657,39.24463 L 69.869289,39.302694 L 69.607766,39.346359 L 69.317443,39.389869 L 69.026966,39.404423 L 68.721934,39.433378 L 68.417057,39.433378 L 68.068515,39.433378 L 67.763483,39.418978 L 67.458606,39.404423 L 67.182683,39.375314 L 66.90676,39.346359 L 66.659792,39.302694 L 66.427534,39.259185 L 66.209676,39.215675 L 66.006373,39.157456 L 65.80307,39.099391 L 65.628722,39.041327 L 65.468928,38.968707 L 65.309289,38.896088 L 65.16405,38.823468 L 65.033366,38.736449 L 64.917082,38.649275 L 64.800953,38.562101 L 64.699379,38.474926 L 64.612205,38.373352 L 64.525031,38.271623 L 64.379792,38.06832 L 64.263663,37.850462 L 64.161934,37.632759 L 64.089314,37.400346 L 64.03125,37.167933 L 63.973185,36.935675 L 57.089675,36.935675 L 57.133185,37.414901 L 57.191249,37.879572 L 57.292978,38.329688 L 57.409107,38.750849 L 57.554346,39.157455 L 57.728694,39.549661 L 57.931997,39.927158 L 58.1353,40.290255 L 58.382113,40.638797 L 58.643481,40.958229 L 58.919404,41.277816 L 59.209881,41.568293 L 59.529468,41.844216 L 59.863455,42.105584 L 60.211997,42.352397 L 60.574939,42.58481 L 60.952591,42.802668 L 61.344643,43.005971 L 61.736849,43.194719 L 62.157855,43.368913 L 62.579016,43.528707 L 63.000177,43.673946 L 63.435893,43.790075 L 63.886009,43.906359 L 64.33628,44.007933 L 64.800951,44.095108 L 65.251222,44.167727 L 65.715893,44.225791 L 66.195119,44.269301 L 66.65979,44.298411 L 67.124461,44.327521 L 67.589287,44.327521 L 68.678427,44.312966 L 69.680387,44.254901 L 70.638839,44.153172 L 71.524826,44.022488 L 72.352594,43.84814 L 73.122142,43.644837 L 73.833781,43.412579 L 74.501755,43.165611 L 75.11182,42.875288 L 75.678065,42.555701 L 76.1864,42.221714 L 76.665626,41.873172 L 77.086787,41.495675 L 77.478839,41.103469 L 77.827381,40.682308 L 78.132413,40.261147 L 78.408336,39.825586 L 78.655149,39.375315 L 78.873007,38.925199 L 79.047355,38.460528 L 79.206994,37.995702 L 79.337678,37.516476 L 79.453962,37.03725 L 79.540982,36.572579 L 79.613601,36.093353 L 79.671821,35.628682 L 79.71533,35.163856 L 79.74444,34.71374 L 79.773395,33.827908 L 79.773395,33.00014 L 79.773395,9.7063402 L 73.703095,9.7063402 L 73.7031,9.70637 z M 63.0582,22.13747 L 63.072755,21.614735 L 63.101865,21.1064 L 63.130819,20.627174 L 63.188884,20.177058 L 63.247103,19.741342 L 63.319723,19.320181 L 63.406742,18.928129 L 63.508471,18.550477 L 63.6246,18.201935 L 63.740729,17.867948 L 63.871568,17.548516 L 64.016652,17.258039 L 64.176446,16.982116 L 64.33624,16.720748 L 64.496034,16.47378 L 64.670228,16.241522 L 64.858976,16.038219 L 65.047879,15.849316 L 65.236627,15.675122 L 65.43993,15.515328 L 65.643233,15.370089 L 65.846536,15.239405 L 66.064394,15.123276 L 66.267697,15.021547 L 66.485555,14.934528 L 66.717813,14.847353 L 66.935671,14.789289 L 67.153529,14.745624 L 67.385942,14.702115 L 67.603645,14.673005 L 67.821503,14.658605 L 68.053916,14.658605 L 68.373348,14.658605 L 68.692935,14.68756 L 68.997812,14.731224 L 69.288289,14.803689 L 69.578766,14.876308 L 69.854689,14.978037 L 70.130612,15.094166 L 70.39198,15.22485 L 70.638793,15.370089 L 70.871206,15.529883 L 71.103619,15.704077 L 71.321477,15.89298 L 71.52478,16.081728 L 71.728083,16.299586 L 71.916831,16.531844 L 72.091025,16.764257 L 72.250819,17.025625 L 72.410613,17.287148 L 72.555852,17.548516 L 72.701091,17.838993 L 72.81722,18.129316 L 72.933349,18.434348 L 73.035078,18.739225 L 73.136652,19.058812 L 73.209271,19.392799 L 73.281891,19.726786 L 73.339955,20.060773 L 73.39802,20.409315 L 73.42713,20.772412 L 73.456239,21.135509 L 73.470639,21.498451 L 73.485194,21.861548 L 73.470639,22.500567 L 73.42713,23.139586 L 73.39802,23.459018 L 73.35451,23.77845 L 73.311,24.083482 L 73.238381,24.402914 L 73.180317,24.707946 L 73.093142,25.012978 L 73.005968,25.303301 L 72.904394,25.593778 L 72.802665,25.884255 L 72.686536,26.160178 L 72.541297,26.436101 L 72.396058,26.682914 L 72.236264,26.944437 L 72.076625,27.176695 L 71.887722,27.409108 L 71.684419,27.626966 L 71.481116,27.830269 L 71.248858,28.019017 L 71.00189,28.193211 L 70.755077,28.353005 L 70.479154,28.483689 L 70.188677,28.614373 L 69.883645,28.730657 L 69.564213,28.817677 L 69.215671,28.890296 L 68.867129,28.948361 L 68.489632,28.97747 L 68.097426,28.97747 L 67.748884,28.97747 L 67.414897,28.948361 L 67.095465,28.890296 L 66.790433,28.817677 L 66.499956,28.730657 L 66.238588,28.628928 L 65.962665,28.498244 L 65.715852,28.353005 L 65.483439,28.207766 L 65.265581,28.033572 L 65.047878,27.844669 L 64.84442,27.641366 L 64.655672,27.438063 L 64.481478,27.22036 L 64.321684,26.987947 L 64.16189,26.740979 L 64.031206,26.494166 L 63.900522,26.232798 L 63.769838,25.956875 L 63.668264,25.680952 L 63.566535,25.405029 L 63.479361,25.114552 L 63.392342,24.824075 L 63.319722,24.533598 L 63.261503,24.243275 L 63.203438,23.938243 L 63.159929,23.633366 L 63.130819,23.342889 L 63.101864,23.037857 L 63.072754,22.73298 L 63.072754,22.442503 L 63.0582,22.137471 L 63.0582,22.13747 z "
   style="fill:black" />

  </g>

 </g>
  </g>
</svg>
