<svg data-name="Header-Logo" xmlns="http://www.w3.org/2000/svg" viewBox="0 0 111 30">
<path d="M19.4,9.4c0,0-3.9-0.1-3.9,3.6v15.7h4.9V14.5c0,0-0.2-1.3,1-1.3c0.9,0,2.1-0.1,2.1-0.1V9.4L19.4,9.4
  C19.4,9.4,19.4,9.4,19.4,9.4z M38.5,2.3h5.1v26.5h-5.1V2.3z M45.7,2.3h5.1v26.5h-5.1V2.3z M6,13.6c0-0.2,0.1-0.8,1-0.8
  c0.8,0,1,0.5,1,0.8v11c0,0.1-0.1,0.9-1,0.9c-1,0-1-0.8-1-0.9V13.6z M6.9,9.3c-5,0-6.3,2.7-6.3,4.3v11.2c0,1.6,1.3,4.4,6.3,4.4
  s6.3-2.8,6.3-4.4V13.5C13.3,11.6,11.6,9.3,6.9,9.3 M31.6,16h-1.7v-2.4c0-0.4,0.1-0.8,0.8-0.8c0.8,0,0.8,0.6,0.8,0.8L31.6,16z
   M36.5,24.7v-3h-4.9v3c0,0.2-0.1,0.8-0.9,0.8c-0.7,0-0.8-0.5-0.8-0.8v-4.9h6.6v-6.2c0-2-1.5-4.3-5.8-4.3c-4.2,0-5.7,2.4-5.7,4.3
  v11.2c0,2,1.5,4.3,5.7,4.3C35,29.1,36.5,26.7,36.5,24.7"/>
<path fill="#E1C174" d="M105.3,2.1h5.1v4.6h-5.1V2.1z M98.2,2.2h5.1v26.5h-5.1V2.2z M105.3,9.4h5.1v19.2h-5.1V9.4z M68,9.4v15.1
  c0,0.1-0.1,0.9-0.9,0.9c-0.9,0-0.9-0.8-0.9-0.9V9.4h-4.9v15.2c0,1.6,1.2,4.4,5.8,4.4c4.6,0,5.8-2.8,5.8-4.4V9.4H68z M81.1,17.5
  l-1.9-1.9c-0.4-0.4-0.5-1.2-0.5-1.7v-0.2c0-0.5,0.2-0.8,0.8-0.8c0.7,0,0.8,0.5,0.8,0.8v2h4.5v-2.1c0-2-1.4-4.3-5.2-4.3
  c-4.2,0-5.2,2.7-5.2,4.2v0.5c0,0.8,0.1,2.2,0.8,3.3c0.8,1.2,2,2.3,3,3.3c0.7,0.7,1.3,1.3,1.8,1.9c0.5,0.6,0.5,1.3,0.5,1.9v0.2
  c0,0.2,0,0.5-0.2,0.7c-0.1,0.1-0.3,0.2-0.6,0.2c-0.8,0-0.8-0.8-0.8-0.9v-2.1h-4.5v2.2c0,1.6,1.1,4.4,5.2,4.4c4.1,0,5.2-2.7,5.2-4.3
  v-0.6c0-0.8-0.1-2.1-0.7-3.1C83.5,19.8,82.6,18.9,81.1,17.5 M93.1,17.5l-1.9-1.9c-0.4-0.4-0.5-1.2-0.5-1.7v-0.2
  c0-0.5,0.2-0.8,0.8-0.8c0.7,0,0.8,0.5,0.8,0.8v2h4.5v-2.1c0-2-1.4-4.3-5.2-4.3c-4.2,0-5.2,2.7-5.2,4.2v0.5c0,0.8,0.1,2.2,0.8,3.3
  c0.8,1.2,2,2.3,3,3.3c0.7,0.7,1.3,1.3,1.8,1.9c0.4,0.5,0.5,1.1,0.5,1.7v0.5c0,0.2-0.1,0.5-0.2,0.7c-0.1,0.1-0.3,0.2-0.6,0.2
  c-0.8,0-0.8-0.8-0.8-0.9v-2.1h-4.5v2.2c0,1.6,1.1,4.4,5.2,4.4c4.1,0,5.2-2.7,5.2-4.3V24c0-0.8-0.1-2.1-0.7-3.1
  C95.4,19.8,94.5,18.9,93.1,17.5 M53.1,6.7v22h5.1V13.2h1.5V9.4h-1.5V7.3c0-0.9,0.4-1.3,1.4-1.3h1.7V2.2h-3.1
  C54.9,2.2,53.1,3.9,53.1,6.7 M67.7,2.2h4.2V6h-4.2V2.2z M62.3,2.2h4.2V6h-4.2V2.2z"/>
</svg>