<?xml version="1.0" encoding="UTF-8" standalone="no"?>
<!-- Created with Inkscape (http://www.inkscape.org/) -->

<svg
   xmlns:dc="http://purl.org/dc/elements/1.1/"
   xmlns:cc="http://creativecommons.org/ns#"
   xmlns:rdf="http://www.w3.org/1999/02/22-rdf-syntax-ns#"
   xmlns:svg="http://www.w3.org/2000/svg"
   xmlns="http://www.w3.org/2000/svg"
   version="1.1"
   width="165.2643pt"
   height="41.560169pt"
   viewBox="0 0 165.2643 41.56017"
   id="svg2">
  <metadata
     id="metadata63">
    <rdf:RDF>
      <cc:Work
         rdf:about="">
        <dc:format>image/svg+xml</dc:format>
        <dc:type
           rdf:resource="http://purl.org/dc/dcmitype/StillImage" />
        <dc:title></dc:title>
      </cc:Work>
    </rdf:RDF>
  </metadata>
  <defs
     id="defs61" />
  <g
     transform="translate(1.0077091,0.50385457)"
     id="surface1">
    <rect
       width="165.2643"
       height="41.560169"
       x="-1.2675982e-07"
       y="-56.935566"
       id="rect5"
       style="fill:#ffffff;fill-opacity:1;stroke:none" />
    <path
       d="m 26.300781,12.433594 c -0.253906,0.04687 -0.332031,0.183594 -0.332031,0.183594 l -0.429688,1.121093 c 1.601563,0.417969 2.390626,0.902344 2.390626,0.902344 0,0 -1.453126,-0.449219 -2.523438,-0.648437 -0.578125,-0.105469 -1.226562,-0.167969 -1.742188,-0.207032 -0.273437,-0.01563 -0.503906,-0.03125 -0.613281,-0.03125 -0.394531,-0.01172 -0.425781,0.242188 -0.425781,0.242188 0,0 -4.300781,8.3125 -4.457031,8.695312 -0.152344,0.382813 0.01172,0.363282 0.01172,0.363282 l 3.042968,0.589843 c 0,0 -0.113281,0.261719 -0.195312,0.523438 -0.08594,0.265625 0.06641,0.953125 0.06641,0.953125 0,0 -0.503906,-0.1875 -0.710938,-0.203125 -0.136718,-0.01172 -0.410156,1.355469 -0.410156,1.355469 0,0 -0.4375,1.710937 -0.734375,1.917968 -0.234375,0.15625 -0.414062,-0.417968 -0.414062,-0.417968 0,0 -0.804688,-2.136719 -1.066407,-2.699219 -0.261718,-0.5625 -1.125,-2.449219 -1.230468,-2.664063 -0.109375,-0.210937 -0.230469,-0.148437 -0.230469,-0.148437 0,0 -0.394531,0.08984 -0.707031,0.121093 -0.3125,0.02734 -0.21875,-0.246093 -0.21875,-0.246093 0,0 0.152344,-0.3125 0.265625,-0.554688 0.117187,-0.238281 0.04687,-0.433593 0.04687,-0.433593 l -0.628906,-0.769532 -1.003907,-1 c 0,0 0.871094,0.296875 1.214844,0.238282 0.371094,-0.06641 0.632813,-0.402344 0.695313,-0.605469 0.0625,-0.207031 0.07031,-0.457031 0.0625,-0.539063 l 0.136718,-0.08594 c 0,0 0.07813,0.04687 0.234375,-0.148438 0.160157,-0.195312 -0.01563,-0.339843 -0.01563,-0.339843 0,0 0.238282,-0.05859 0.3125,-0.179688 0.07031,-0.121094 -0.0625,-0.335938 -0.02344,-0.507812 0.03516,-0.171876 0.859375,-0.05078 0.859375,-0.05078 0,0 0.390625,0.03516 0.539062,-0.253906 0.164063,-0.3125 -0.05078,-1.019531 -0.113281,-1.324219 -0.0625,-0.300781 -0.269531,-1.515625 -0.269531,-1.515625 0,0 0.339844,-0.28125 0.386718,-0.492187 0.09766,-0.453125 0.167969,-1.320313 0.167969,-1.320313 l 0.02344,-0.480468 c 0.570312,0.503906 0.53125,-0.167969 0.53125,-0.167969 0,0 0.222656,-1.058594 0.02344,-1.925781 C 18.621094,8.8125 17.601562,8.238281 17.601562,8.238281 c 0,0 -0.601562,-1.246093 -1.863281,-1.703125 -1.253906,-0.457031 -2.34375,-0.058594 -2.34375,-0.058594 0,0 -1.242187,-0.277343 -1.9375,-0.144531 -0.691406,0.136719 -1.378906,0.828125 -1.378906,0.828125 0,0 -1.109375,0.183594 -1.527344,0.484375 -0.417969,0.300781 -0.667969,1.285157 -0.667969,1.285157 0,0 -0.523437,0.367187 -0.800781,0.933593 0,0 -0.117187,0.285157 -0.140625,0.566407 -0.023437,0.285156 0.148438,0.835937 0.148438,0.835937 -1.007813,1.207031 0.171875,3.425781 0.171875,3.425781 1.417969,0.523438 2.402343,1.457032 2.402343,1.457032 0,0 -1.863281,-1.179688 -2.917968,-1.285157 -1.0625,-0.105469 -1.738282,0.382813 -1.898438,0.515625 l -0.015625,0.0625 c 0,0 0.820313,0.574219 1.1875,0.90625 0.367188,0.328125 1.144531,1.207032 1.152344,1.550782 0.011719,0.339843 -0.519531,1.089843 -0.519531,1.089843 0,0 -1.507813,2.257813 -2.246094,4.5 -0.683594,2.070313 -0.925781,3.503907 -1,4.53125 2.621094,3.871094 7.0625,6.414063 12.097656,6.414063 4.515625,0 8.550782,-2.042969 11.222656,-5.25 -0.09375,-0.832032 -0.234374,-1.574219 -0.507812,-2.085938 -0.128906,-0.242187 -0.75,-0.414062 -0.75,-0.414062 l -0.648438,-0.175782 c 0,0 0.621094,-0.765624 0.925782,-1.335937 0.304687,-0.566406 -0.0039,-2.054687 0.04687,-2.320313 0.05078,-0.261718 0.09375,-0.453124 0.105469,-0.625 0.01172,-0.167968 -0.03125,-0.71875 -0.03125,-0.71875 0,0 2.878906,-6.164062 2.921874,-6.308593 0.03906,-0.144531 0.03906,-0.140625 0.03906,-0.140625 l -1.863281,-2.753906 c 0,0 -0.445313,0.08594 -0.664063,0.128906"
       id="path7"
       style="fill:#ee3f3a;fill-opacity:1;fill-rule:nonzero;stroke:none" />
    <path
       d="m 31.363281,19.273438 0,-0.03516 c 0,-3.671875 2.96875,-6.648437 6.929688,-6.648437 3.960937,0 6.894531,2.941406 6.894531,6.609375 l 0,0.03906 c 0,3.667969 -2.96875,6.644531 -6.929688,6.644531 -3.960937,0 -6.894531,-2.9375 -6.894531,-6.609374 m 10.195313,0 0,-0.03516 c 0,-1.847656 -1.339844,-3.453125 -3.300782,-3.453125 -1.945312,0 -3.246093,1.570313 -3.246093,3.414063 l 0,0.03906 c 0,1.84375 1.335937,3.449219 3.28125,3.449219 1.960937,0 3.265625,-1.570312 3.265625,-3.414062"
       id="path9"
       style="fill:#000000;fill-opacity:1;fill-rule:nonzero;stroke:none" />
    <path
       d="M 46,23.730469 47.980469,21.375 c 1.265625,1.003906 2.675781,1.53125 4.164062,1.53125 0.953125,0 1.464844,-0.328125 1.464844,-0.875 l 0,-0.03516 c 0,-0.53125 -0.421875,-0.824219 -2.164063,-1.226563 -2.730468,-0.621093 -4.839843,-1.386719 -4.839843,-4.015625 l 0,-0.03906 c 0,-2.371094 1.886719,-4.089844 4.96875,-4.089844 2.183593,0 3.886719,0.585938 5.28125,1.699219 l -1.777344,2.5 c -1.175781,-0.820313 -2.457031,-1.257813 -3.59375,-1.257813 -0.863281,0 -1.285156,0.363282 -1.285156,0.820313 l 0,0.03906 c 0,0.582031 0.441406,0.839844 2.21875,1.242188 2.953125,0.636719 4.785156,1.585937 4.785156,3.980469 l 0,0.03516 c 0,2.613281 -2.070313,4.164062 -5.1875,4.164062 -2.273437,0 -4.4375,-0.710937 -6.015625,-2.117187"
       id="path11"
       style="fill:#000000;fill-opacity:1;fill-rule:nonzero;stroke:none" />
    <path
       d="m 59.078125,25.628906 3.578125,0 0,-12.785156 -3.578125,0 z"
       id="path13"
       style="fill:#000000;fill-opacity:1;fill-rule:nonzero;stroke:none" />
    <path
       d="m 69.300781,12.753906 3.429688,0 5.464843,12.875 -3.816406,0 -0.933594,-2.28125 -4.953124,0 -0.914063,2.28125 -3.742187,0 z m 3.117188,7.835938 -1.429688,-3.636719 -1.449219,3.636719"
       id="path15"
       style="fill:#000000;fill-opacity:1;fill-rule:nonzero;stroke:none" />
    <path
       d="m 79.414062,12.84375 3.320313,0 5.28125,6.757812 0,-6.757812 3.519531,0 0,12.785156 -3.117187,0 -5.480469,-7.011718 0,7.011718 -3.523438,0"
       id="path17"
       style="fill:#000000;fill-opacity:1;fill-rule:nonzero;stroke:none" />
    <path
       d="m 94.320312,12.84375 4.953126,0 c 4.585942,0 7.242192,2.628906 7.242192,6.320312 l 0,0.03516 c 0,3.691406 -2.69532,6.429687 -7.316411,6.429687 l -4.878907,0 z m 5.007813,9.644531 c 2.125005,0 3.539065,-1.167969 3.539065,-3.234375 l 0,-0.03516 c 0,-2.046875 -1.41406,-3.234375 -3.539065,-3.234375 l -1.449219,0 0,6.503906"
       id="path19"
       style="fill:#000000;fill-opacity:1;fill-rule:nonzero;stroke:none" />
    <path
       d="m 108.39844,12.84375 10.32422,0 0,3.015625 -6.80078,0 0,1.933594 6.16015,0 0,2.792969 -6.16015,0 0,2.03125 6.89453,0 0,3.011718 -10.41797,0"
       id="path21"
       style="fill:#000000;fill-opacity:1;fill-rule:nonzero;stroke:none" />
    <path
       d="m 121.23047,12.84375 6.06641,0 c 1.96484,0 3.32031,0.511719 4.18359,1.390625 0.75,0.730469 1.13672,1.714844 1.13672,2.976563 l 0,0.03516 c 0,1.953125 -1.04688,3.25 -2.64063,3.925781 l 3.0625,4.457031 -4.10937,0 -2.58594,-3.871094 -1.55859,0 0,3.871094 -3.55469,0 z m 5.90234,6.136719 c 1.21094,0 1.90625,-0.585938 1.90625,-1.515625 l 0,-0.03516 c 0,-1.003907 -0.73047,-1.515626 -1.92187,-1.515626 l -2.33203,0 0,3.066407"
       id="path23"
       style="fill:#000000;fill-opacity:1;fill-rule:nonzero;stroke:none" />
    <path
       d="m 137.32812,24.222656 c 0,0.886719 -0.74609,1.628906 -1.63671,1.628906 -0.89454,0 -1.63672,-0.742187 -1.63672,-1.628906 0,-0.890625 0.74218,-1.628906 1.63672,-1.628906 0.89062,0 1.63671,0.738281 1.63671,1.628906"
       id="path25"
       style="fill:#ee3f3a;fill-opacity:1;fill-rule:nonzero;stroke:none" />
    <path
       d="m 138.75391,20.933594 0,-0.03516 c 0,-3.085938 2.25781,-4.914063 4.53125,-4.914063 1.76171,0 2.89843,0.953125 3.63281,2.011719 l 0,-5.699219 1.41015,0 0,13.332031 -1.41015,0 0,-1.898437 c -0.76953,1.132812 -1.89063,2.097656 -3.63281,2.097656 -2.27344,0 -4.53125,-1.789063 -4.53125,-4.894531 m 8.21875,-0.01563 0,-0.03906 c 0,-2.171875 -1.67188,-3.632812 -3.42969,-3.632812 -1.83594,0 -3.33985,1.351562 -3.33985,3.632812 l 0,0.03906 c 0,2.226562 1.54297,3.652343 3.33985,3.652343 1.75781,0 3.42969,-1.480468 3.42969,-3.652343"
       id="path27"
       style="fill:#ee3f3a;fill-opacity:1;fill-rule:nonzero;stroke:none" />
    <path
       d="m 155.11328,24.625 c 1.30078,0 2.21875,-0.53125 2.98828,-1.332031 l 0.87891,0.785156 c -0.95313,1.058594 -2.10938,1.769531 -3.90235,1.769531 -2.60546,0 -4.73437,-1.988281 -4.73437,-4.929687 0,-2.742188 1.92578,-4.929688 4.55078,-4.929688 2.80469,0 4.41797,2.226563 4.41797,5.003907 0,0.125 0,0.273437 -0.0195,0.492187 l -7.51563,0 c 0.19922,1.988281 1.66797,3.140625 3.33594,3.140625 m 2.76953,-4.273438 c -0.16797,-1.71875 -1.15625,-3.179687 -3.02734,-3.179687 -1.63281,0 -2.87891,1.351563 -3.07813,3.179687"
       id="path29"
       style="fill:#ee3f3a;fill-opacity:1;fill-rule:nonzero;stroke:none" />
    <path
       d="m 82.019531,28.144531 c 1.148438,0 1.632813,0.398438 1.632813,1.128907 0,0.789062 -0.679688,1.121093 -1.316406,1.234374 l -0.0078,0.01953 c 0.660156,0.136718 1.175781,0.496094 1.175781,1.234375 0,0.585937 -0.375,1.035156 -0.882812,1.292969 -0.441406,0.238281 -1.027344,0.308593 -1.65625,0.308593 l -1.878906,0 0.05859,-0.25 c 0.527344,-0.04297 0.59375,-0.128906 0.71875,-0.734375 l 0.644531,-3.242187 c 0.121094,-0.617188 0.04688,-0.691407 -0.5,-0.742188 l 0.06641,-0.25 z m -1.171875,4.253907 c -0.101562,0.550781 0.148438,0.664062 0.425782,0.664062 0.523437,0 1.121093,-0.488281 1.121093,-1.355469 0,-0.75 -0.476562,-0.984375 -1.023437,-0.984375 l -0.203125,0 z m 0.597656,-1.992188 c 0.785157,0 1.152344,-0.464844 1.152344,-1.140625 0,-0.601563 -0.359375,-0.8125 -0.660156,-0.8125 -0.140625,0 -0.238281,0.02344 -0.285156,0.08203 -0.05859,0.05469 -0.101563,0.195313 -0.132813,0.382813 l -0.285156,1.488281"
       id="path31"
       style="fill:#ee3f3a;fill-opacity:1;fill-rule:nonzero;stroke:none" />
    <path
       d="m 87.980469,32.585938 c -0.5,0.574218 -1.007813,0.875 -1.324219,0.875 -0.246094,0 -0.320312,-0.25 -0.21875,-0.738282 0.03125,-0.171875 0.0625,-0.324218 0.105469,-0.496094 l -0.02344,0 c -0.410156,0.5625 -0.910156,0.949219 -1.128906,1.074219 -0.179687,0.105469 -0.367187,0.160157 -0.546875,0.160157 -0.238281,0 -0.523438,-0.128907 -0.304688,-1.121094 0.117188,-0.519532 0.238282,-1.042969 0.378907,-1.625 0.04687,-0.21875 0.03906,-0.269532 -0.01563,-0.285156 -0.07422,0 -0.304688,0.152343 -0.46875,0.285156 l -0.09766,-0.230469 c 0.476562,-0.445313 1.046874,-0.8125 1.363281,-0.8125 0.214843,0 0.296875,0.1875 0.148437,0.839844 -0.125,0.550781 -0.277344,1.210937 -0.40625,1.761719 -0.08203,0.359374 -0.03516,0.464843 0.07031,0.464843 0.3125,0 0.925781,-0.757812 1.113281,-1.121093 0.128906,-0.554688 0.277344,-1.203126 0.382812,-1.726563 l 0.847657,-0.21875 0.105469,0 c -0.210938,0.886719 -0.414063,1.757813 -0.601563,2.714844 -0.04297,0.230469 -0.03516,0.3125 0.02344,0.3125 0.07422,0 0.300782,-0.179688 0.464844,-0.335938 z m -2.050781,-4.378907 c 0.277343,0 0.417968,0.222657 0.417968,0.441407 0,0.308593 -0.207031,0.585937 -0.550781,0.585937 -0.25,0 -0.421875,-0.179687 -0.421875,-0.433594 0,-0.308593 0.210938,-0.59375 0.546875,-0.59375 z m 1.492187,0 c 0.28125,0 0.417969,0.222657 0.417969,0.441407 0,0.308593 -0.203125,0.585937 -0.546875,0.585937 -0.253907,0 -0.425781,-0.179687 -0.425781,-0.433594 0,-0.308593 0.214843,-0.59375 0.546874,-0.59375"
       id="path33"
       style="fill:#ee3f3a;fill-opacity:1;fill-rule:nonzero;stroke:none" />
    <path
       d="m 91.113281,32.542969 c -0.546875,0.628906 -1.109375,0.917969 -1.632812,0.917969 -0.546875,0 -0.890625,-0.371094 -0.890625,-1.152344 0,-0.683594 0.277344,-1.503906 0.84375,-2.027344 0.351562,-0.324219 0.960937,-0.609375 1.339844,-0.609375 0.398437,0 0.675781,0.210937 0.675781,0.457031 0,0.128906 -0.09766,0.308594 -0.300781,0.445313 -0.125,0.09766 -0.222657,0.09766 -0.292969,-0.01563 C 90.625,30.210938 90.429688,30.09375 90.28125,30.09375 c -0.121094,0 -0.246094,0.117188 -0.367188,0.367188 -0.179687,0.351562 -0.320312,0.992187 -0.320312,1.621093 0,0.550781 0.183594,0.761719 0.441406,0.761719 0.328125,0 0.769532,-0.355469 0.941406,-0.519531"
       id="path35"
       style="fill:#ee3f3a;fill-opacity:1;fill-rule:nonzero;stroke:none" />
    <path
       d="m 95.410156,32.640625 c -0.523437,0.554687 -1.085937,0.820313 -1.347656,0.820313 -0.230469,0 -0.359375,-0.1875 -0.1875,-0.941407 l 0.375,-1.683593 c 0.07422,-0.34375 0.03125,-0.464844 -0.04687,-0.464844 -0.273437,0 -0.882813,0.644531 -1.179687,1.179687 -0.105469,0.421875 -0.261719,1.238281 -0.347657,1.734375 -0.3125,0.02344 -0.636719,0.09766 -0.90625,0.175782 l -0.05859,-0.0625 c 0.328124,-1.5625 0.636718,-3.027344 0.9375,-4.644532 0.07422,-0.40625 0.01562,-0.457031 -0.332032,-0.480468 l -0.132812,-0.0078 0.05859,-0.25 c 0.675781,-0.05859 1.257812,-0.285156 1.410156,-0.285156 0.09766,0 0.125,0.06641 0.08203,0.242187 l -0.636719,2.976563 0.01563,0 c 0.457031,-0.578125 0.851563,-0.886719 1.152344,-1.074219 0.1875,-0.113281 0.433594,-0.203125 0.605469,-0.203125 0.226562,0 0.523437,0.132813 0.292968,1.140625 l -0.34375,1.535156 c -0.05469,0.269532 -0.03125,0.351563 0.02734,0.351563 0.05469,0 0.257813,-0.121094 0.4375,-0.285157"
       id="path37"
       style="fill:#ee3f3a;fill-opacity:1;fill-rule:nonzero;stroke:none" />
    <path
       d="m 98.78125,32.476562 c -0.726562,0.78125 -1.328125,0.988282 -1.804688,0.988282 -0.480468,0 -0.9375,-0.261719 -0.9375,-1.1875 0,-0.789063 0.375,-1.628906 0.929688,-2.074219 0.304688,-0.253906 0.851562,-0.53125 1.25,-0.53125 0.546875,0 0.777344,0.335937 0.777344,0.699219 0,0.804687 -1.152344,1.230468 -1.96875,1.449218 l -0.0078,0.195313 c 0,0.460937 0.136719,0.820313 0.507813,0.820313 0.308594,0 0.730468,-0.203126 1.109375,-0.570313 z m -1.175781,-2.316406 c -0.136719,0.105469 -0.441407,0.539063 -0.546875,1.359375 0.800781,-0.261719 1.078125,-0.601562 1.078125,-1.023437 0,-0.335938 -0.171875,-0.449219 -0.292969,-0.449219 l -0.238281,0.113281"
       id="path39"
       style="fill:#ee3f3a;fill-opacity:1;fill-rule:nonzero;stroke:none" />
    <path
       d="m 100.83203,30.992188 c 0.42578,-0.847657 0.78125,-1.320313 1.09375,-1.320313 0.14844,0 0.28516,0.08203 0.375,0.238281 0.10156,0.179688 0.0742,0.332032 -0.0391,0.511719 -0.11328,0.160156 -0.20313,0.25 -0.28516,0.308594 l -0.21484,-0.0078 c -0.0977,-0.08984 -0.20313,-0.148437 -0.28516,-0.148437 -0.0703,0 -0.13672,0.03516 -0.26953,0.230469 -0.20312,0.300781 -0.35937,0.640624 -0.45703,0.976562 -0.10547,0.4375 -0.21094,1.054688 -0.29297,1.503906 -0.29687,0.01563 -0.652342,0.08984 -0.890624,0.152344 L 99.5,33.375 c 0.203125,-0.871094 0.394531,-1.71875 0.54688,-2.605469 0.0508,-0.242187 0.043,-0.347656 -0.0156,-0.347656 -0.07422,0 -0.316406,0.152344 -0.464844,0.285156 l -0.121094,-0.203125 c 0.457032,-0.488281 0.980468,-0.832031 1.265628,-0.832031 0.2539,0 0.30859,0.277344 0.17187,0.945313 l -0.0742,0.375"
       id="path41"
       style="fill:#ee3f3a;fill-opacity:1;fill-rule:nonzero;stroke:none" />
    <path
       d="m 104.12109,32.859375 c -0.008,-0.1875 0.13282,-0.355469 0.25391,-0.4375 0.14063,-0.08984 0.23047,-0.08203 0.28516,0.0078 0.28125,0.367187 0.58203,0.542968 0.83593,0.542968 0.1875,0 0.33985,-0.105468 0.33985,-0.292968 0,-0.183594 -0.0977,-0.332032 -0.47266,-0.625 -0.32422,-0.265626 -0.72656,-0.585938 -0.72656,-1.039063 0,-0.285156 0.082,-0.585937 0.49219,-0.9375 0.30078,-0.25 0.66797,-0.40625 0.95312,-0.40625 0.41016,0 0.67969,0.246094 0.67969,0.488281 0,0.15625 -0.0977,0.324219 -0.26172,0.429688 -0.0977,0.07422 -0.1875,0.05859 -0.23828,-0.0078 -0.15234,-0.195312 -0.375,-0.4375 -0.66016,-0.4375 -0.17187,0 -0.29687,0.121094 -0.29687,0.285157 0,0.203124 0.1914,0.421874 0.52344,0.664062 0.41796,0.300781 0.71875,0.613281 0.71875,1.019531 0,0.738281 -0.87891,1.347657 -1.57422,1.347657 -0.41016,0 -0.85157,-0.242188 -0.85157,-0.601563"
       id="path43"
       style="fill:#ee3f3a;fill-opacity:1;fill-rule:nonzero;stroke:none" />
    <path
       d="m 110.01172,32.476562 c -0.72656,0.78125 -1.33203,0.988282 -1.80469,0.988282 -0.48437,0 -0.9375,-0.261719 -0.9375,-1.1875 0,-0.789063 0.375,-1.628906 0.92969,-2.074219 0.30078,-0.253906 0.84766,-0.53125 1.25,-0.53125 0.54687,0 0.77344,0.335937 0.77344,0.699219 0,0.804687 -1.15235,1.230468 -1.96875,1.449218 l -0.008,0.195313 c 0,0.460937 0.14063,0.820313 0.50782,0.820313 0.3125,0 0.73437,-0.203126 1.10937,-0.570313 z m -1.17578,-2.316406 c -0.14063,0.105469 -0.44141,0.539063 -0.54688,1.359375 0.80078,-0.261719 1.07813,-0.601562 1.07813,-1.023437 0,-0.335938 -0.17188,-0.449219 -0.29688,-0.449219 l -0.23437,0.113281"
       id="path45"
       style="fill:#ee3f3a;fill-opacity:1;fill-rule:nonzero;stroke:none" />
    <path
       d="m 112.4375,32.601562 c -0.52344,0.601563 -1.10547,0.859376 -1.35937,0.859376 -0.21094,0 -0.375,-0.160157 -0.22657,-0.789063 l 0.44922,-1.957031 c 0.043,-0.1875 0.043,-0.261719 -0.008,-0.261719 -0.0625,0 -0.32031,0.171875 -0.47266,0.285156 l -0.10937,-0.210937 c 0.53125,-0.519532 1.1289,-0.855469 1.41406,-0.855469 0.23828,0 0.28906,0.277344 0.15625,0.824219 l -0.46484,1.917968 c -0.0586,0.226563 -0.0273,0.292969 0.0234,0.292969 0.0664,0 0.25391,-0.117187 0.46485,-0.300781 z m 0.15234,-4.027343 c 0,0.328125 -0.22656,0.609375 -0.58593,0.609375 -0.26172,0 -0.4336,-0.183594 -0.4336,-0.453125 0,-0.316407 0.21875,-0.628907 0.58203,-0.628907 0.30079,0 0.4375,0.238282 0.4375,0.472657"
       id="path47"
       style="fill:#ee3f3a;fill-opacity:1;fill-rule:nonzero;stroke:none" />
    <path
       d="m 115.39453,30.167969 -0.67969,0.04297 -0.44921,2.128906 c -0.0664,0.300781 -0.0312,0.414062 0.0391,0.414062 0.0977,0 0.41797,-0.21875 0.61328,-0.414062 l 0.12109,0.210937 c -0.29297,0.414063 -0.97656,0.910157 -1.41797,0.910157 -0.26953,0 -0.45703,-0.277344 -0.26953,-1.144532 l 0.45703,-2.105468 -0.54687,0 -0.0312,-0.08984 0.23437,-0.300782 0.4336,0 0.17969,-0.742187 0.91406,-0.570313 0.0977,0.05859 -0.28515,1.253906 0.8164,0"
       id="path49"
       style="fill:#ee3f3a;fill-opacity:1;fill-rule:nonzero;stroke:none" />
    <path
       d="m 119.49219,32.386719 c -0.11328,0.570312 -0.0742,0.652343 0.57031,0.71875 l -0.0547,0.257812 -2.32812,0 0.0469,-0.257812 c 0.6211,-0.06641 0.66407,-0.132813 0.78516,-0.71875 l 0.58594,-2.925781 c 0.10156,-0.488282 0.0352,-0.542969 -0.33985,-0.578126 l -0.24609,-0.01562 0.0664,-0.242188 c 0.53906,-0.07422 1.125,-0.222656 1.73828,-0.425781"
       id="path51"
       style="fill:#ee3f3a;fill-opacity:1;fill-rule:nonzero;stroke:none" />
    <path
       d="m 124.21094,29.144531 -1.87891,0 -0.39844,1.242188 c 0.44141,-0.128907 0.70313,-0.191407 0.8711,-0.191407 0.74609,0 1.39844,0.4375 1.39062,1.308594 -0.008,0.640625 -0.42578,1.152344 -0.98047,1.519532 -0.44921,0.292968 -0.9375,0.441406 -1.33203,0.441406 -0.34765,0 -0.68359,-0.140625 -0.83203,-0.292969 -0.0977,-0.105469 -0.16406,-0.222656 -0.13672,-0.351563 0.0234,-0.136718 0.15235,-0.308593 0.25782,-0.367187 l 0.22265,0.0078 c 0.1875,0.179687 0.54688,0.53125 1.03516,0.53125 0.5664,0 0.80078,-0.433594 0.80078,-1.050782 -0.008,-0.828125 -0.47266,-1.210937 -1.10156,-1.210937 -0.26172,0 -0.47266,0.05859 -0.59375,0.09766 l -0.0586,-0.08203 0.67578,-2.449219 2.37891,0"
       id="path53"
       style="fill:#ee3f3a;fill-opacity:1;fill-rule:nonzero;stroke:none" />
    <path
       d="m 127.01172,28.203125 c 0.94141,0 1.45312,0.6875 1.45312,1.722656 0,1.375 -0.82421,2.75 -2.32812,3.324219 -0.33203,0.125 -0.98438,0.246094 -1.24609,0.246094 l -0.043,-0.253906 c 1.0625,-0.25 1.97656,-0.957032 2.39453,-2.152344 l -0.44141,0.203125 c -0.15625,0.07031 -0.29297,0.121093 -0.36719,0.121093 -0.6875,0 -1.27343,-0.480468 -1.27343,-1.324218 0,-0.953125 0.8164,-1.886719 1.84375,-1.886719 z m -0.0977,0.304687 c -0.44922,0 -0.75,0.785157 -0.75,1.367188 0,0.613281 0.25391,1.019531 0.75,1.019531 0.125,0 0.27735,-0.05859 0.38282,-0.117187 0.0898,-0.203125 0.17187,-0.609375 0.17187,-1.136719 0,-0.464844 -0.082,-1.132813 -0.54687,-1.132813"
       id="path55"
       style="fill:#ee3f3a;fill-opacity:1;fill-rule:nonzero;stroke:none" />
    <path
       d="m 132.67969,28.445312 c -0.29297,0.04688 -0.65235,0.171876 -0.88282,0.277344 -0.41406,0.199219 -1.14062,0.648438 -1.57421,1.683594 l 0.0156,0.0078 0.39063,-0.171874 c 0.14062,-0.06641 0.28515,-0.113282 0.42578,-0.121094 0.70312,0 1.24218,0.46875 1.24218,1.390625 0,0.964843 -0.77734,1.949219 -1.91406,1.949219 -0.92187,0 -1.46875,-0.699219 -1.46875,-1.699219 0,-1.339844 0.82422,-2.765625 2.61328,-3.367188 0.35157,-0.121093 0.80078,-0.203125 1.09375,-0.242187 z m -2.13282,2.1875 c -0.17187,0 -0.30078,0.03906 -0.42187,0.105469 -0.0977,0.253907 -0.19922,0.640625 -0.19922,1.285157 0,0.527343 0.19141,1.128906 0.59766,1.128906 0.52343,0 0.76172,-0.863282 0.76172,-1.472656 0,-0.671876 -0.27344,-1.046876 -0.73047,-1.046876"
       id="path57"
       style="fill:#ee3f3a;fill-opacity:1;fill-rule:nonzero;stroke:none" />
  </g>
</svg>
